<svg width="312" height="74" viewBox="0 0 312 74" fill="none" xmlns="http://www.w3.org/2000/svg">
<path d="M295.508 23.5744C295.508 50.9016 232.433 73.0549 154.627 73.0549C76.8196 73.0549 13.7446 50.9016 13.7446 23.5744C13.7446 -3.7527 76.8196 34.5695 154.627 34.5695C232.433 34.5695 295.508 -3.7527 295.508 23.5744Z" fill="#BCA581"/>
<line x1="23.8494" y1="2.45112" x2="48.5897" y2="29.9403" stroke="#551616" stroke-width="5"/>
<line x1="0.790569" y1="19.6195" x2="29.6542" y2="29.2407" stroke="#551616" stroke-width="5"/>
<line x1="273.078" y1="31.9003" x2="311.562" y2="25.028" stroke="#551616" stroke-width="5"/>
<line x1="253.769" y1="44.3871" x2="290.879" y2="58.1316" stroke="#BCA581" stroke-width="5"/>
<line x1="235.657" y1="51.1833" x2="278.265" y2="62.179" stroke="#BCA581" stroke-width="5"/>
<line x1="18.5923" y1="58.062" x2="54.3281" y2="48.4408" stroke="#BCA581" stroke-width="5"/>
<line x1="0.624695" y1="29.1916" x2="43.2329" y2="40.1873" stroke="#BCA581" stroke-width="5"/>
<line x1="288.762" y1="7.49805" x2="266.77" y2="23.9915" stroke="#551616" stroke-width="5"/>
<line x1="266.291" y1="0.71837" x2="258.044" y2="28.2075" stroke="#551616" stroke-width="5"/>
<line x1="48.9021" y1="8.38075" x2="65.3955" y2="37.2444" stroke="#551616" stroke-width="5"/>
<line x1="66.0189" y1="11.6866" x2="105.878" y2="39.1757" stroke="#551616" stroke-width="5"/>
<line x1="238.397" y1="33.0577" x2="253.516" y2="8.31747" stroke="#551616" stroke-width="5"/>
</svg>
