<svg width="403" height="400" viewBox="0 0 403 400" fill="none" xmlns="http://www.w3.org/2000/svg">
<path d="M187.916 9.04367C193.325 -2.74513 210.076 -2.74515 215.485 9.04364L229.615 39.8422C233.684 48.7088 244.944 51.4841 252.666 45.5237L279.491 24.8199C289.759 16.8951 304.592 24.6797 303.902 37.6318L302.102 71.4694C301.583 81.211 310.264 88.9013 319.872 87.2125L353.246 81.3463C366.02 79.101 375.536 92.8869 368.907 104.035L351.587 133.16C346.601 141.545 350.714 152.388 360.006 155.358L392.283 165.673C404.638 169.622 406.657 186.251 395.606 193.041L366.736 210.782C358.424 215.889 357.026 227.401 363.874 234.349L387.66 258.483C396.765 267.721 390.825 283.383 377.884 284.26L344.076 286.552C334.343 287.211 327.755 296.755 330.59 306.09L340.436 338.513C344.205 350.924 331.666 362.032 319.8 356.795L288.8 343.112C279.875 339.173 269.607 344.563 267.779 354.145L261.429 387.431C258.999 400.171 242.734 404.18 234.661 394.028L213.571 367.506C207.499 359.871 195.902 359.871 189.83 367.506L168.739 394.028C160.666 404.18 144.402 400.171 141.971 387.431L135.622 354.145C133.794 344.563 123.525 339.173 114.6 343.112L83.6 356.795C71.734 362.032 59.1955 350.924 62.9643 338.513L72.8105 306.09C75.6451 296.755 69.0572 287.211 59.3242 286.552L25.5162 284.26C12.5755 283.383 6.63544 267.721 15.7401 258.483L39.5264 234.349C46.3742 227.401 44.9764 215.889 36.6648 210.782L7.7941 193.041C-3.25677 186.251 -1.23766 169.622 11.1171 165.674L43.3944 155.358C52.6867 152.388 56.7991 141.545 51.813 133.16L34.4935 104.035C27.8641 92.8869 37.3799 79.101 50.1544 81.3463L83.5283 87.2125C93.1364 88.9013 101.817 81.211 101.299 71.4695L99.498 37.6318C98.8088 24.6797 113.641 16.895 123.909 24.8199L150.734 45.5237C158.457 51.4841 169.717 48.7088 173.785 39.8422L187.916 9.04367Z" fill="#FFC42E"/>
</svg>
