<svg width="449" height="449" viewBox="0 0 449 449" fill="none" xmlns="http://www.w3.org/2000/svg">
<path d="M210.698 30.956C216.107 19.1672 232.858 19.1672 238.267 30.956L252.398 61.7545C256.466 70.6211 267.726 73.3965 275.449 67.436L302.274 46.7322C312.542 38.8074 327.374 46.592 326.685 59.5441L324.884 93.3818C324.366 103.123 333.046 110.814 342.654 109.125L376.028 103.259C388.803 101.013 398.319 114.799 391.689 125.947L374.37 155.072C369.384 163.457 373.496 174.301 382.788 177.27L415.066 187.586C427.42 191.534 429.44 208.163 418.389 214.954L389.518 232.694C381.206 237.801 379.809 249.314 386.656 256.262L410.443 280.395C419.547 289.633 413.607 305.296 400.667 306.173L366.859 308.464C357.126 309.124 350.538 318.668 353.372 328.002L363.219 360.426C366.987 372.836 354.449 383.945 342.583 378.707L311.583 365.025C302.658 361.086 292.389 366.475 290.561 376.058L284.212 409.343C281.781 422.084 265.517 426.092 257.444 415.941L236.353 389.419C230.281 381.783 218.684 381.783 212.612 389.419L191.522 415.941C183.449 426.092 167.184 422.084 164.754 409.343L158.404 376.058C156.576 366.475 146.307 361.086 137.383 365.025L106.382 378.707C94.5164 383.945 81.978 372.836 85.7468 360.426L95.5929 328.002C98.4275 318.668 91.8397 309.124 82.1067 308.464L48.2987 306.173C35.358 305.296 29.4179 289.633 38.5226 280.395L62.3089 256.262C69.1567 249.314 67.7588 237.801 59.4473 232.694L30.5766 214.954C19.5257 208.163 21.5448 191.534 33.8996 187.586L66.1769 177.27C75.4692 174.301 79.5816 163.457 74.5955 155.072L57.276 125.947C50.6466 114.799 60.1623 101.013 72.9369 103.259L106.311 109.125C115.919 110.814 124.599 103.123 124.081 93.3818L122.28 59.5441C121.591 46.5921 136.424 38.8074 146.692 46.7322L173.516 67.436C181.239 73.3964 192.499 70.6211 196.567 61.7545L210.698 30.956Z" fill="#FFC42E"/>
</svg>
