<svg width="83" height="20" viewBox="0 0 83 20" fill="none" xmlns="http://www.w3.org/2000/svg">
<path fill-rule="evenodd" clip-rule="evenodd" d="M14.325 6.51586C14.325 10.0174 11.266 12.8559 7.49257 12.8559C3.71913 12.8559 0.660156 10.0174 0.660156 6.51586C0.660156 3.01433 3.71913 0.175781 7.49257 0.175781C11.266 0.175781 14.325 3.01433 14.325 6.51586ZM82.6481 6.51592C82.6481 10.0175 79.5891 12.856 75.8157 12.856C72.0423 12.856 68.9833 10.0175 68.9833 6.51592C68.9833 3.01439 72.0423 0.17584 75.8157 0.17584C79.5891 0.17584 82.6481 3.01439 82.6481 6.51592ZM42.5074 19.1963C50.526 19.1963 57.0263 16.3577 57.0263 12.8562C57.0263 9.35466 50.526 6.51611 42.5074 6.51611C34.4889 6.51611 27.9886 9.35466 27.9886 12.8562C27.9886 16.3577 34.4889 19.1963 42.5074 19.1963Z" fill="black"/>
</svg>
