<svg width="148" height="36" viewBox="0 0 148 36" fill="none" xmlns="http://www.w3.org/2000/svg">
<path d="M142.04 11.4909C142.04 24.8111 111.296 35.6093 73.3701 35.6093C35.4445 35.6093 4.69971 24.8111 4.69971 11.4909C4.69971 -1.82917 35.4445 16.8503 73.3701 16.8503C111.296 16.8503 142.04 -1.82917 142.04 11.4909Z" fill="#BCA581"/>
<line y1="-2.5" x2="19.2896" y2="-2.5" transform="matrix(-0.996703 -0.0811385 -0.0811385 0.996703 19.2261 17.5652)" stroke="#BCA581" stroke-width="5"/>
<line y1="-2.5" x2="19.2896" y2="-2.5" transform="matrix(-0.617564 -0.78652 -0.78652 0.617564 21.9126 21.1716)" stroke="#BCA581" stroke-width="5"/>
<line y1="-2.5" x2="21.449" y2="-2.5" transform="matrix(-0.968277 0.249878 0.249878 0.968277 34.1782 26.1283)" stroke="#BCA581" stroke-width="5"/>
<line y1="-2.5" x2="13.3991" y2="-2.5" transform="matrix(0.8 0.6 0.6 -0.8 8.71973 2.67981)" stroke="#551616" stroke-width="5"/>
<line y1="-2.5" x2="13.9891" y2="-2.5" transform="matrix(0.287348 0.957826 0.957826 -0.287348 20.1094 0)" stroke="#551616" stroke-width="5"/>
<line y1="-2.5" x2="13.9891" y2="-2.5" transform="matrix(0.287348 0.957826 0.957826 -0.287348 20.1094 0)" stroke="#551616" stroke-width="5"/>
<line x1="127.612" y1="15.0734" x2="146.838" y2="13.5083" stroke="#BCA581" stroke-width="5"/>
<line x1="123.162" y1="19.6277" x2="135.074" y2="4.45608" stroke="#BCA581" stroke-width="5"/>
<line x1="113.487" y1="23.7076" x2="134.256" y2="29.0672" stroke="#BCA581" stroke-width="5"/>
<line x1="139.821" y1="4.67981" x2="129.102" y2="12.7193" stroke="#551616" stroke-width="5"/>
<line x1="129.326" y1="0.71837" x2="125.306" y2="14.1175" stroke="#551616" stroke-width="5"/>
</svg>
