<svg width="88" height="23" viewBox="0 0 88 23" fill="none" xmlns="http://www.w3.org/2000/svg">
<path d="M57.9417 16.6953C57.9417 20.165 51.4346 22.9777 43.4077 22.9777C35.3809 22.9777 28.8738 20.165 28.8738 16.6953C28.8738 13.2256 35.3809 10.4129 43.4077 10.4129C51.4346 10.4129 57.9417 13.2256 57.9417 16.6953Z" fill="black"/>
<path d="M57.9417 16.6953C57.9417 20.165 51.4346 22.9777 43.4077 22.9777C35.3809 22.9777 28.8738 20.165 28.8738 16.6953C28.8738 13.2256 35.3809 10.4129 43.4077 10.4129C51.4346 10.4129 57.9417 13.2256 57.9417 16.6953Z" fill="black"/>
<path d="M12.5886 9.54852L17.6335 4.55385C17.6335 4.55384 17.6335 4.55382 17.6336 4.5538C18.0267 4.16459 18.2495 3.63454 18.2495 3.0797C18.2495 2.52483 18.0267 1.99476 17.6335 1.60554C17.2407 1.21666 16.71 1 16.1587 1C15.6075 1 15.0768 1.21666 14.684 1.60554L14.6839 1.6056L9.62479 6.6143L4.56743 1.60655L4.56732 1.60644C4.17447 1.21756 3.64379 1.0009 3.09255 1.0009C2.54132 1.0009 2.01064 1.21756 1.61778 1.60644C1.22459 1.99566 1.00181 2.52572 1.00181 3.0806C1.00181 3.63541 1.22454 4.16543 1.61767 4.55464C1.61771 4.55468 1.61775 4.55471 1.61778 4.55475L6.66074 9.54824L1.61608 14.5403L1.61597 14.5404C1.22277 14.9296 1 15.4597 1 16.0145C1 16.5694 1.22277 17.0995 1.61597 17.4887C2.00882 17.8776 2.5395 18.0942 3.09074 18.0942C3.64192 18.0942 4.17255 17.8776 4.56539 17.4888C4.56543 17.4888 4.56547 17.4887 4.56551 17.4887L9.62452 12.4825L14.682 17.4904L14.6822 17.4905C15.075 17.8794 15.6057 18.096 16.1569 18.096C16.7082 18.096 17.2388 17.8794 17.6317 17.4905C18.0249 17.1013 18.2477 16.5712 18.2477 16.0163C18.2477 15.4615 18.0249 14.9315 17.6318 14.5423C17.6318 14.5422 17.6317 14.5422 17.6317 14.5422L12.5886 9.54852Z" fill="black" stroke="black" stroke-width="2"/>
<path d="M80.5886 9.54852L85.6335 4.55385C85.6335 4.55384 85.6335 4.55382 85.6336 4.5538C86.0267 4.16458 86.2495 3.63454 86.2495 3.0797C86.2495 2.52483 86.0267 1.99476 85.6335 1.60554C85.2406 1.21666 84.71 1 84.1587 1C83.6075 1 83.0768 1.21666 82.684 1.60554L82.6839 1.6056L77.6248 6.6143L72.5674 1.60655L72.5673 1.60644C72.1745 1.21756 71.6438 1.0009 71.0926 1.0009C70.5413 1.0009 70.0106 1.21756 69.6178 1.60644C69.2246 1.99566 69.0018 2.52572 69.0018 3.0806C69.0018 3.63541 69.2245 4.16543 69.6177 4.55464C69.6177 4.55468 69.6177 4.55471 69.6178 4.55475L74.6607 9.54824L69.6161 14.5403L69.616 14.5404C69.2228 14.9296 69 15.4597 69 16.0145C69 16.5694 69.2228 17.0995 69.616 17.4887C70.0088 17.8776 70.5395 18.0942 71.0907 18.0942C71.6419 18.0942 72.1726 17.8776 72.5654 17.4888C72.5654 17.4888 72.5655 17.4887 72.5655 17.4887L77.6245 12.4825L82.682 17.4904L82.6822 17.4905C83.075 17.8794 83.6057 18.096 84.1569 18.096C84.7082 18.096 85.2388 17.8794 85.6317 17.4905C86.0249 17.1013 86.2477 16.5712 86.2477 16.0163C86.2477 15.4615 86.0249 14.9315 85.6318 14.5423C85.6318 14.5422 85.6317 14.5422 85.6317 14.5422L80.5886 9.54852Z" fill="black" stroke="black" stroke-width="2"/>
</svg>
