<svg width="83" height="20" viewBox="0 0 83 20" fill="none" xmlns="http://www.w3.org/2000/svg">
<ellipse cx="6.84685" cy="6.37168" rx="6.84685" ry="6.37168" fill="black"/>
<path d="M82.1615 6.37168C82.1615 9.89066 79.096 12.7434 75.3146 12.7434C71.5332 12.7434 68.4678 9.89066 68.4678 6.37168C68.4678 2.8527 71.5332 0 75.3146 0C79.096 0 82.1615 2.8527 82.1615 6.37168Z" fill="black"/>
<path d="M82.1615 6.37168C82.1615 9.89066 79.096 12.7434 75.3146 12.7434C71.5332 12.7434 68.4678 9.89066 68.4678 6.37168C68.4678 2.8527 71.5332 0 75.3146 0C79.096 0 82.1615 2.8527 82.1615 6.37168Z" fill="black"/>
<path d="M55.0991 12.7435C55.0991 16.2625 48.585 19.1152 40.5495 19.1152C32.5141 19.1152 26 16.2625 26 12.7435C26 9.22452 32.5141 6.37183 40.5495 6.37183C48.585 6.37183 55.0991 9.22452 55.0991 12.7435Z" fill="black"/>
<path d="M55.0991 12.7435C55.0991 16.2625 48.585 19.1152 40.5495 19.1152C32.5141 19.1152 26 16.2625 26 12.7435C26 9.22452 32.5141 6.37183 40.5495 6.37183C48.585 6.37183 55.0991 9.22452 55.0991 12.7435Z" fill="black"/>
</svg>
