<svg width="190" height="192" viewBox="0 0 190 192" fill="none" xmlns="http://www.w3.org/2000/svg">
<path fill-rule="evenodd" clip-rule="evenodd" d="M67.5521 179.983H58.9944V191.1H67.5521V179.983ZM134.301 179.983H125.744V191.1H134.301V179.983Z" fill="#D9D9D9"/>
<path fill-rule="evenodd" clip-rule="evenodd" d="M63.0909 186.012C48.579 186.012 36.8147 174.247 36.8147 159.735V124.976C36.8147 110.53 48.526 98.8186 62.9726 98.8186C77.4192 98.8186 89.1304 110.53 89.1304 124.976V159.972C89.1304 174.353 77.4721 186.012 63.0909 186.012ZM130.908 186.012C116.396 186.012 104.631 174.247 104.631 159.735V124.976C104.631 110.53 116.343 98.8186 130.789 98.8186C145.236 98.8186 156.947 110.53 156.947 124.976V159.972C156.947 174.353 145.289 186.012 130.908 186.012Z" fill="#D7A023"/>
<path d="M0 95.4299C0 42.7254 42.7254 0 95.4299 0V0C147.66 0 190 42.3405 190 94.5701V121.866C190 153.972 163.972 180 131.866 180H58.1342C26.0276 180 0 153.972 0 121.866V95.4299Z" fill="#ECAB18"/>
</svg>
