<svg width="580" height="209" viewBox="0 0 580 209" fill="none" xmlns="http://www.w3.org/2000/svg">
<rect width="554" height="26" transform="matrix(-1 0 0 1 554 8)" fill="#B5C8DB"/>
<rect width="14.63" height="73.15" transform="matrix(-1 0 0 1 433.386 21.3823)" fill="#B5C8DB"/>
<rect width="14.63" height="73.15" transform="matrix(-1 0 0 1 172.297 27.0093)" fill="#B5C8DB"/>
<circle cx="20.8196" cy="20.8196" r="20.8196" transform="matrix(-1 0 0 1 565.056 0)" fill="#B5C8DB"/>
<mask id="path-5-outside-1_666_338" maskUnits="userSpaceOnUse" x="55" y="88" width="525" height="122" fill="black">
<rect fill="white" x="55" y="88" width="525" height="122"/>
<path fill-rule="evenodd" clip-rule="evenodd" d="M514 103.084C514 103.038 513.962 103 513.916 103H85C76.7157 103 70 109.716 70 118V179C70 187.284 76.7158 194 85 194H513.678C513.678 194 513.678 194 513.678 194V194C513.678 194 513.679 194 513.679 194V194C513.679 194 513.679 194 513.679 194H513.841C513.929 194 514 193.929 514 193.841V193.841C514 193.791 514.024 193.744 514.064 193.714L558.726 160.478C566.786 154.48 566.786 142.408 558.726 136.41L514.034 103.152C514.013 103.136 514 103.111 514 103.084V103.084Z"/>
</mask>
<path fill-rule="evenodd" clip-rule="evenodd" d="M514 103.084C514 103.038 513.962 103 513.916 103H85C76.7157 103 70 109.716 70 118V179C70 187.284 76.7158 194 85 194H513.678C513.678 194 513.678 194 513.678 194V194C513.678 194 513.679 194 513.679 194V194C513.679 194 513.679 194 513.679 194H513.841C513.929 194 514 193.929 514 193.841V193.841C514 193.791 514.024 193.744 514.064 193.714L558.726 160.478C566.786 154.48 566.786 142.408 558.726 136.41L514.034 103.152C514.013 103.136 514 103.111 514 103.084V103.084Z" fill="#0093F3"/>
<path d="M514.034 103.152L522.989 91.1184L514.034 103.152ZM558.726 160.478L549.771 148.444L558.726 160.478ZM558.726 136.41L549.771 148.444L558.726 136.41ZM514.064 193.714L505.109 181.68L514.064 193.714ZM85 118H513.916V88H85V118ZM85 179V118H55V179H85ZM513.678 179H85V209H513.678V179ZM513.841 179H513.679V209H513.841V179ZM549.771 148.444L505.109 181.68L523.019 205.747L567.681 172.511L549.771 148.444ZM505.079 115.186L549.771 148.444L567.681 124.377L522.989 91.1184L505.079 115.186ZM522.989 91.1184C526.771 93.933 529 98.3699 529 103.084H499C499 107.852 501.254 112.339 505.079 115.186L522.989 91.1184ZM567.681 172.511C583.801 160.515 583.801 136.373 567.681 124.377L549.771 148.444C549.79 148.459 549.8 148.468 549.803 148.471C549.806 148.473 549.804 148.472 549.8 148.467C549.796 148.462 549.791 148.455 549.786 148.447C549.781 148.439 549.777 148.432 549.773 148.425C549.767 148.412 549.766 148.407 549.768 148.412C549.768 148.414 549.769 148.418 549.77 148.424C549.77 148.43 549.771 148.437 549.771 148.444C549.771 148.451 549.77 148.458 549.77 148.464C549.769 148.47 549.768 148.474 549.768 148.476C549.766 148.481 549.767 148.476 549.773 148.463C549.777 148.456 549.781 148.449 549.786 148.441C549.791 148.433 549.796 148.426 549.8 148.421C549.804 148.416 549.806 148.415 549.803 148.417C549.8 148.42 549.79 148.429 549.771 148.444L567.681 172.511ZM529 193.841C529 198.532 526.782 202.947 523.019 205.747L505.109 181.68C501.265 184.54 499 189.05 499 193.841H529ZM513.841 209C522.213 209 529 202.213 529 193.841H499C499 185.645 505.645 179 513.841 179V209ZM522.571 206.08C519.995 207.977 516.879 209 513.679 209V179C510.48 179 507.364 180.023 504.787 181.92L522.571 206.08ZM504.786 206.08C510.075 209.974 517.282 209.974 522.571 206.08L504.787 181.92C510.075 178.027 517.282 178.027 522.57 181.92L504.786 206.08ZM513.678 209C510.478 209 507.363 207.977 504.786 206.08L522.57 181.92C519.994 180.023 516.878 179 513.678 179V209ZM55 179C55 195.569 68.4315 209 85 209V179L85 179H55ZM513.916 118C505.676 118 499 111.321 499 103.084H529C529 94.755 522.248 88 513.916 88V118ZM85 88C68.4315 88 55 101.431 55 118H85L85 118V88Z" fill="white" mask="url(#path-5-outside-1_666_338)"/>
<path d="M117.508 149.58C116.948 149.54 116.448 149.52 116.008 149.52C115.928 151.76 115.828 153.96 115.708 156.12C115.588 158.28 115.428 160.44 115.228 162.6C115.108 164 114.728 165.06 114.088 165.78C113.448 166.46 112.228 166.8 110.428 166.8C108.748 166.8 107.608 166.46 107.008 165.78C106.448 165.1 106.148 164.04 106.108 162.6C106.068 160.56 106.028 158.64 105.988 156.84C105.988 155.04 105.968 153.24 105.928 151.44C103.528 151.64 100.988 151.86 98.3082 152.1C95.6682 152.34 93.2082 152.5 90.9282 152.58C89.9682 152.62 89.2082 152.38 88.6482 151.86C88.0882 151.34 87.7682 150.28 87.6882 148.68C87.6082 147.36 87.7682 146.34 88.1682 145.62C88.5682 144.9 89.3482 144.48 90.5082 144.36C93.0282 144.08 95.6082 143.84 98.2482 143.64C100.888 143.44 103.448 143.26 105.928 143.1C105.968 141.94 105.988 140.74 105.988 139.5C105.988 138.26 106.008 137 106.048 135.72C103.168 135.72 100.408 135.72 97.7682 135.72C95.1282 135.68 92.3882 135.62 89.5482 135.54C88.8682 135.5 88.2082 135.16 87.5682 134.52C86.9282 133.84 86.6282 132.7 86.6682 131.1C86.7082 129.78 86.9482 128.8 87.3882 128.16C87.8282 127.48 88.6282 127.1 89.7882 127.02C93.7882 126.82 97.8282 126.68 101.908 126.6C106.028 126.48 109.968 126.42 113.728 126.42C114.768 126.42 115.468 126.7 115.828 127.26C116.228 127.78 116.428 128.54 116.428 129.54C116.428 131.54 116.408 133.48 116.368 135.36C116.368 137.24 116.348 139.14 116.308 141.06C117.428 141.02 118.588 141 119.788 141C121.028 140.96 122.068 140.96 122.908 141C122.948 138.96 122.988 136.9 123.028 134.82C123.068 132.74 123.128 130.6 123.208 128.4C123.248 126.8 123.868 125.74 125.068 125.22C126.028 124.78 127.128 124.58 128.368 124.62C129.608 124.62 130.688 124.84 131.608 125.28C132.248 125.6 132.668 126 132.868 126.48C133.108 126.92 133.228 127.54 133.228 128.34C133.308 135.02 133.208 141.78 132.928 148.62C132.648 155.42 132.168 162.16 131.488 168.84C131.408 169.72 131.088 170.42 130.528 170.94C130.008 171.5 129.408 171.9 128.728 172.14C128.288 172.3 127.668 172.36 126.868 172.32C126.068 172.28 125.388 172.16 124.828 171.96C124.308 171.76 123.848 171.42 123.448 170.94C123.088 170.5 122.908 169.88 122.908 169.08C122.868 165.68 122.848 162.36 122.848 159.12C122.848 155.88 122.848 152.64 122.848 149.4C122.368 149.44 121.828 149.48 121.228 149.52C120.628 149.52 120.008 149.54 119.368 149.58C118.728 149.58 118.108 149.58 117.508 149.58ZM140.269 170.94C139.629 170.34 139.309 169.34 139.309 167.94C139.269 166.62 139.549 165.6 140.149 164.88C140.789 164.16 141.629 163.78 142.669 163.74C145.909 163.58 149.029 163.44 152.029 163.32C155.069 163.16 158.049 163.02 160.969 162.9C163.889 162.78 166.789 162.7 169.669 162.66C172.589 162.58 175.549 162.52 178.549 162.48C179.429 162.48 180.109 162.78 180.589 163.38C181.109 163.98 181.389 164.8 181.429 165.84C181.429 167.32 181.089 168.32 180.409 168.84C179.729 169.4 178.949 169.72 178.069 169.8C172.229 170.4 166.449 170.86 160.729 171.18C155.009 171.54 149.069 171.78 142.909 171.9C141.789 171.9 140.909 171.58 140.269 170.94ZM163.369 134.52C163.289 136 163.209 137.62 163.129 139.38C164.449 140.06 165.889 140.84 167.449 141.72C169.009 142.56 170.589 143.42 172.189 144.3C173.789 145.18 175.309 146.04 176.749 146.88C178.189 147.72 179.449 148.46 180.529 149.1C181.249 149.54 181.749 150.3 182.029 151.38C182.349 152.46 182.109 153.64 181.309 154.92C180.629 156.08 179.729 156.8 178.609 157.08C177.529 157.36 176.489 157.28 175.489 156.84C174.209 156.32 172.849 155.74 171.409 155.1C169.969 154.42 168.489 153.7 166.969 152.94C165.489 152.18 163.989 151.4 162.469 150.6C160.989 149.76 159.569 148.92 158.209 148.08C157.129 149.04 155.969 150.02 154.729 151.02C153.529 152.02 152.309 153 151.069 153.96C149.869 154.88 148.669 155.76 147.469 156.6C146.269 157.4 145.169 158.1 144.169 158.7C143.009 159.38 141.909 159.66 140.869 159.54C139.829 159.38 138.889 158.8 138.049 157.8C137.249 156.88 136.909 155.9 137.029 154.86C137.149 153.82 137.549 152.98 138.229 152.34C140.309 150.42 142.529 148.4 144.889 146.28C147.249 144.16 149.489 142.06 151.609 139.98C151.529 138.46 151.449 136.84 151.369 135.12C151.329 133.36 151.289 131.84 151.249 130.56C151.249 129.92 151.309 129.32 151.429 128.76C151.589 128.16 151.889 127.66 152.329 127.26C152.769 126.82 153.369 126.48 154.129 126.24C154.929 125.96 155.929 125.8 157.129 125.76C158.369 125.72 159.389 125.8 160.189 126C161.029 126.16 161.689 126.44 162.169 126.84C162.649 127.2 162.989 127.66 163.189 128.22C163.389 128.74 163.489 129.32 163.489 129.96C163.489 131.48 163.449 133 163.369 134.52ZM196.761 146.58C196.761 147.06 196.861 147.4 197.061 147.6C197.301 147.76 197.601 147.84 197.961 147.84C200.921 147.68 203.921 147.54 206.961 147.42C210.041 147.3 212.981 147.16 215.781 147C216.541 146.96 217.161 147.1 217.641 147.42C218.161 147.74 218.461 148.52 218.541 149.76C218.621 151.04 218.401 151.96 217.881 152.52C217.401 153.04 216.781 153.36 216.021 153.48C214.501 153.72 212.781 153.96 210.861 154.2C208.941 154.4 206.901 154.6 204.741 154.8C202.581 155 200.361 155.18 198.081 155.34C195.801 155.5 193.561 155.6 191.361 155.64C190.201 155.68 189.261 155.36 188.541 154.68C187.821 154 187.421 153.06 187.341 151.86C187.221 149.78 187.121 147.78 187.041 145.86C187.001 143.9 186.961 141.94 186.921 139.98C186.881 138.02 186.861 136.02 186.861 133.98C186.861 131.9 186.861 129.68 186.861 127.32C186.861 126.44 187.041 125.8 187.401 125.4C187.761 125 188.401 124.76 189.321 124.68C193.521 124.4 197.581 124.2 201.501 124.08C205.421 123.96 209.381 123.86 213.381 123.78C214.101 123.78 214.681 124.04 215.121 124.56C215.601 125.08 215.881 126.04 215.961 127.44C216.081 130.12 215.241 131.56 213.441 131.76C210.601 132.08 207.861 132.3 205.221 132.42C202.621 132.5 199.861 132.6 196.941 132.72C196.941 133.64 196.941 134.48 196.941 135.24C196.941 135.96 196.921 136.66 196.881 137.34C197.961 137.34 199.121 137.34 200.361 137.34C201.601 137.3 202.821 137.28 204.021 137.28C205.221 137.24 206.361 137.22 207.441 137.22C208.521 137.22 209.461 137.22 210.261 137.22C211.141 137.22 211.801 137.4 212.241 137.76C212.721 138.12 212.961 139 212.961 140.4C212.961 141.8 212.721 142.68 212.241 143.04C211.801 143.4 211.141 143.6 210.261 143.64C209.581 143.68 208.721 143.74 207.681 143.82C206.641 143.86 205.521 143.9 204.321 143.94C203.121 143.98 201.861 144.02 200.541 144.06C199.261 144.1 198.001 144.12 196.761 144.12V146.58ZM230.421 174.72C230.301 175.56 230.021 176.16 229.581 176.52C229.181 176.88 228.641 177.1 227.961 177.18C226.441 177.3 224.501 177.4 222.141 177.48C219.821 177.6 217.401 177.68 214.881 177.72C212.361 177.8 209.901 177.86 207.501 177.9C205.101 177.94 203.081 177.96 201.441 177.96C199.961 177.96 198.901 177.66 198.261 177.06C197.621 176.5 197.221 175.52 197.061 174.12C196.981 173.44 196.901 172.52 196.821 171.36C196.781 170.2 196.721 168.98 196.641 167.7C196.561 166.38 196.481 165.08 196.401 163.8C196.361 162.52 196.341 161.42 196.341 160.5C196.341 159.58 196.561 158.9 197.001 158.46C197.481 157.98 198.121 157.72 198.921 157.68C199.641 157.64 200.781 157.6 202.341 157.56C203.941 157.48 205.741 157.4 207.741 157.32C209.741 157.24 211.841 157.16 214.041 157.08C216.281 157 218.401 156.94 220.401 156.9C222.441 156.82 224.261 156.76 225.861 156.72C227.461 156.68 228.661 156.66 229.461 156.66C230.021 156.66 230.421 156.82 230.661 157.14C230.941 157.46 231.081 157.9 231.081 158.46C231.121 159.54 231.121 160.86 231.081 162.42C231.041 163.94 230.981 165.48 230.901 167.04C230.821 168.6 230.741 170.06 230.661 171.42C230.581 172.82 230.501 173.92 230.421 174.72ZM219.261 135C220.141 134.96 221.161 134.9 222.321 134.82C222.321 133.66 222.321 132.52 222.321 131.4C222.321 130.28 222.341 129.18 222.381 128.1C222.381 126.58 223.001 125.58 224.241 125.1C225.201 124.74 226.301 124.58 227.541 124.62C228.781 124.62 229.861 124.8 230.781 125.16C231.421 125.4 231.841 125.74 232.041 126.18C232.281 126.62 232.401 127.24 232.401 128.04C232.441 129.92 232.461 131.92 232.461 134.04C232.461 136.12 232.441 138.2 232.401 140.28C232.401 142.36 232.361 144.38 232.281 146.34C232.241 148.3 232.161 150.08 232.041 151.68C231.961 152.56 231.721 153.26 231.321 153.78C230.961 154.26 230.381 154.66 229.581 154.98C229.341 155.06 229.001 155.14 228.561 155.22C228.121 155.26 227.641 155.3 227.121 155.34C226.601 155.34 226.101 155.32 225.621 155.28C225.141 155.2 224.761 155.1 224.481 154.98C223.961 154.74 223.501 154.38 223.101 153.9C222.741 153.38 222.561 152.72 222.561 151.92C222.521 150.56 222.481 149.12 222.441 147.6C222.441 146.04 222.421 144.42 222.381 142.74C221.261 142.78 220.281 142.8 219.441 142.8C218.641 142.8 218.101 142.78 217.821 142.74C216.661 142.66 215.841 142.36 215.361 141.84C214.881 141.28 214.621 140.38 214.581 139.14C214.501 137.66 214.721 136.68 215.241 136.2C215.801 135.68 216.561 135.32 217.521 135.12C217.801 135.04 218.381 135 219.261 135ZM221.841 169.68C221.881 168.76 221.881 167.86 221.841 166.98C221.841 166.1 221.821 165.08 221.781 163.92C220.901 163.96 219.721 164.02 218.241 164.1C216.801 164.14 215.281 164.2 213.681 164.28C212.081 164.32 210.541 164.38 209.061 164.46C207.581 164.54 206.381 164.6 205.461 164.64C205.501 165.32 205.541 165.92 205.581 166.44C205.621 166.92 205.661 167.4 205.701 167.88C205.741 168.36 205.781 168.84 205.821 169.32C205.861 169.8 205.901 170.36 205.941 171C206.741 171 207.801 170.98 209.121 170.94C210.481 170.94 211.881 170.92 213.321 170.88C214.761 170.88 216.141 170.86 217.461 170.82C218.821 170.82 219.901 170.8 220.701 170.76C221.141 170.72 221.441 170.64 221.601 170.52C221.761 170.4 221.841 170.14 221.841 169.74V169.68ZM271.733 173.94C271.693 174.34 271.473 174.74 271.073 175.14C270.673 175.54 269.993 175.92 269.033 176.28C268.193 176.6 267.493 176.76 266.933 176.76C266.373 176.8 265.853 176.72 265.373 176.52C264.933 176.32 264.533 176.04 264.173 175.68C263.813 175.32 263.433 174.92 263.033 174.48C261.873 173.32 260.793 171.86 259.793 170.1C258.833 168.38 257.973 166.44 257.213 164.28C256.493 162.08 255.913 159.72 255.473 157.2C255.073 154.64 254.873 151.98 254.873 149.22C254.873 146.5 255.093 143.88 255.533 141.36C256.013 138.8 256.633 136.44 257.393 134.28C258.193 132.08 259.093 130.12 260.093 128.4C261.133 126.64 262.233 125.18 263.393 124.02C263.793 123.62 264.173 123.24 264.533 122.88C264.893 122.48 265.293 122.18 265.733 121.98C266.213 121.78 266.733 121.7 267.293 121.74C267.853 121.74 268.553 121.9 269.393 122.22C270.353 122.58 271.033 122.96 271.433 123.36C271.833 123.76 272.053 124.16 272.093 124.56C272.173 124.96 272.093 125.38 271.853 125.82C271.653 126.22 271.413 126.64 271.133 127.08C268.973 130.32 267.213 133.74 265.853 137.34C264.533 140.9 263.873 144.86 263.873 149.22C263.873 153.62 264.473 157.62 265.673 161.22C266.913 164.78 268.613 168.18 270.773 171.42C271.053 171.86 271.293 172.28 271.493 172.68C271.733 173.12 271.813 173.54 271.733 173.94ZM314.184 163.08C312.784 165.44 310.544 167.38 307.464 168.9C304.384 170.42 300.764 171.24 296.604 171.36C293.324 171.48 290.324 171.08 287.604 170.16C284.924 169.24 282.604 167.86 280.644 166.02C278.724 164.14 277.224 161.78 276.144 158.94C275.104 156.1 274.584 152.82 274.584 149.1C274.584 146.02 275.024 143.16 275.904 140.52C276.824 137.84 278.204 135.5 280.044 133.5C281.884 131.46 284.184 129.82 286.944 128.58C289.744 127.34 293.004 126.6 296.724 126.36C298.244 126.24 299.824 126.26 301.464 126.42C303.104 126.54 304.664 126.82 306.144 127.26C307.624 127.7 308.964 128.32 310.164 129.12C311.364 129.88 312.284 130.82 312.924 131.94C313.484 133.02 313.724 134.1 313.644 135.18C313.604 136.26 313.124 137.26 312.204 138.18C311.284 139.1 310.264 139.7 309.144 139.98C308.024 140.26 306.984 139.92 306.024 138.96C304.944 137.88 303.704 136.96 302.304 136.2C300.944 135.44 299.144 135.08 296.904 135.12C294.984 135.16 293.244 135.54 291.684 136.26C290.124 136.94 288.804 137.92 287.724 139.2C286.644 140.44 285.804 141.92 285.204 143.64C284.644 145.32 284.364 147.16 284.364 149.16C284.364 151.4 284.644 153.38 285.204 155.1C285.804 156.82 286.624 158.28 287.664 159.48C288.704 160.68 289.964 161.58 291.444 162.18C292.924 162.78 294.564 163.04 296.364 162.96C297.524 162.92 298.644 162.74 299.724 162.42C300.804 162.1 301.804 161.68 302.724 161.16C303.684 160.6 304.524 159.96 305.244 159.24C306.004 158.52 306.624 157.74 307.104 156.9C307.424 156.34 307.804 155.96 308.244 155.76C308.724 155.52 309.204 155.42 309.684 155.46C310.204 155.46 310.724 155.56 311.244 155.76C311.804 155.96 312.324 156.22 312.804 156.54C313.964 157.3 314.624 158.3 314.784 159.54C314.984 160.78 314.784 161.96 314.184 163.08ZM339.443 170.58C338.683 169.94 338.243 168.86 338.123 167.34C337.323 168.62 336.123 169.58 334.523 170.22C332.963 170.9 331.323 171.3 329.603 171.42C326.203 171.66 323.503 170.9 321.503 169.14C319.503 167.42 318.343 164.76 318.023 161.16C317.743 157.92 317.543 154.58 317.423 151.14C317.303 147.7 317.303 144.3 317.423 140.94C317.463 140.14 317.783 139.5 318.383 139.02C319.023 138.54 320.243 138.28 322.043 138.24C323.843 138.2 325.043 138.44 325.643 138.96C326.283 139.44 326.623 140.14 326.663 141.06C326.663 141.42 326.683 142.02 326.723 142.86C326.763 143.7 326.783 144.66 326.783 145.74C326.823 146.82 326.843 147.98 326.843 149.22C326.883 150.42 326.903 151.6 326.903 152.76C326.943 153.92 326.963 154.98 326.963 155.94C327.003 156.9 327.023 157.64 327.023 158.16C327.023 159.84 327.463 161.12 328.343 162C329.263 162.84 330.783 163.16 332.903 162.96C334.623 162.76 335.963 162.2 336.923 161.28C337.923 160.36 338.423 159.2 338.423 157.8C338.423 155.32 338.423 152.58 338.423 149.58C338.463 146.54 338.483 143.72 338.483 141.12C338.483 139.92 338.903 139.14 339.743 138.78C340.623 138.42 341.763 138.24 343.163 138.24C344.683 138.24 345.803 138.36 346.523 138.6C347.243 138.84 347.643 139.52 347.723 140.64C347.843 142.68 347.903 144.88 347.903 147.24C347.903 149.56 347.863 151.9 347.783 154.26C347.743 156.62 347.663 158.92 347.543 161.16C347.423 163.36 347.303 165.34 347.183 167.1C347.143 167.62 347.063 168.14 346.943 168.66C346.863 169.18 346.683 169.64 346.403 170.04C346.123 170.48 345.723 170.84 345.203 171.12C344.683 171.4 343.983 171.54 343.103 171.54C341.463 171.54 340.243 171.22 339.443 170.58ZM355.365 169.02C354.525 168.58 353.865 168.08 353.385 167.52C352.545 166.68 352.085 165.78 352.005 164.82C351.925 163.86 352.265 162.92 353.025 162C353.785 161.08 354.505 160.6 355.185 160.56C355.905 160.48 356.525 160.6 357.045 160.92C358.885 161.96 360.765 162.68 362.685 163.08C364.605 163.48 366.465 163.6 368.265 163.44C368.625 163.4 368.945 163.28 369.225 163.08C369.545 162.88 369.745 162.62 369.825 162.3C369.945 161.54 369.685 161.02 369.045 160.74C367.365 160.06 365.525 159.42 363.525 158.82C361.525 158.18 359.565 157.46 357.645 156.66C355.565 155.82 353.905 154.62 352.665 153.06C351.465 151.5 350.965 149.56 351.165 147.24C351.405 144.6 352.705 142.48 355.065 140.88C357.425 139.28 360.525 138.4 364.365 138.24C365.645 138.2 366.965 138.26 368.325 138.42C369.685 138.58 370.965 138.84 372.165 139.2C373.405 139.52 374.525 139.92 375.525 140.4C376.565 140.88 377.365 141.38 377.925 141.9C378.725 142.7 379.205 143.58 379.365 144.54C379.525 145.5 379.345 146.44 378.825 147.36C378.185 148.4 377.425 149.1 376.545 149.46C375.665 149.78 374.945 149.78 374.385 149.46C372.665 148.46 370.865 147.68 368.985 147.12C367.145 146.56 365.465 146.24 363.945 146.16C363.025 146.12 362.345 146.2 361.905 146.4C361.465 146.6 361.145 146.98 360.945 147.54C360.585 148.74 360.965 149.6 362.085 150.12C363.645 150.84 365.445 151.54 367.485 152.22C369.525 152.86 371.525 153.52 373.485 154.2C375.925 155.08 377.625 156.3 378.585 157.86C379.585 159.42 379.905 161.26 379.545 163.38C379.065 166.22 377.625 168.24 375.225 169.44C372.825 170.64 369.425 171.24 365.025 171.24C363.865 171.24 362.705 171.14 361.545 170.94C360.385 170.78 359.285 170.52 358.245 170.16C357.205 169.84 356.245 169.46 355.365 169.02ZM399.971 138.24C401.571 138.2 403.111 138.18 404.591 138.18C406.111 138.18 407.451 138.18 408.611 138.18C409.411 138.18 410.051 138.5 410.531 139.14C411.051 139.74 411.311 140.58 411.311 141.66C411.311 142.46 411.211 143.12 411.011 143.64C410.851 144.16 410.611 144.58 410.291 144.9C409.971 145.18 409.611 145.4 409.211 145.56C408.811 145.68 408.391 145.76 407.951 145.8C406.871 145.96 405.631 146.1 404.231 146.22C402.871 146.3 401.431 146.38 399.911 146.46C399.831 148.82 399.771 151.2 399.731 153.6C399.731 155.96 399.731 158.32 399.731 160.68C399.731 161.36 399.851 161.88 400.091 162.24C400.371 162.6 400.911 162.74 401.711 162.66C402.511 162.62 403.391 162.58 404.351 162.54C405.311 162.5 406.171 162.44 406.931 162.36C407.491 162.32 408.011 162.54 408.491 163.02C409.011 163.46 409.311 164.32 409.391 165.6C409.431 166.4 409.391 167.06 409.271 167.58C409.191 168.06 409.031 168.44 408.791 168.72C408.551 169.04 408.271 169.28 407.951 169.44C407.671 169.6 407.391 169.74 407.111 169.86C406.111 170.26 404.931 170.62 403.571 170.94C402.211 171.3 400.831 171.48 399.431 171.48C393.871 171.48 390.951 168.88 390.671 163.68C390.551 161.52 390.451 158.98 390.371 156.06C390.291 153.1 390.231 150.06 390.191 146.94H385.451C384.331 146.94 383.451 146.64 382.811 146.04C382.171 145.44 381.831 144.38 381.791 142.86C381.751 141.46 382.051 140.42 382.691 139.74C383.371 139.02 384.191 138.62 385.151 138.54C385.871 138.5 386.631 138.48 387.431 138.48C388.271 138.44 389.171 138.4 390.131 138.36V130.26C390.131 129.78 390.191 129.32 390.311 128.88C390.471 128.4 390.731 128 391.091 127.68C391.491 127.36 392.011 127.1 392.651 126.9C393.331 126.7 394.191 126.6 395.231 126.6C396.191 126.6 396.971 126.7 397.571 126.9C398.211 127.06 398.711 127.3 399.071 127.62C399.431 127.94 399.671 128.34 399.791 128.82C399.911 129.26 399.971 129.76 399.971 130.32V138.24ZM446.288 161.4C445.448 163.4 444.268 165.12 442.748 166.56C441.228 168 439.388 169.12 437.228 169.92C435.068 170.76 432.668 171.2 430.028 171.24C427.748 171.28 425.568 170.92 423.488 170.16C421.448 169.44 419.648 168.4 418.088 167.04C416.528 165.68 415.268 164.06 414.308 162.18C413.348 160.3 412.808 158.24 412.688 156C412.568 153.64 412.848 151.42 413.528 149.34C414.248 147.22 415.328 145.38 416.768 143.82C418.208 142.22 419.988 140.94 422.108 139.98C424.228 138.98 426.668 138.42 429.428 138.3C432.268 138.18 434.808 138.52 437.048 139.32C439.328 140.12 441.248 141.28 442.808 142.8C444.368 144.28 445.548 146.04 446.348 148.08C447.188 150.12 447.608 152.32 447.608 154.68C447.608 157.12 447.168 159.36 446.288 161.4ZM433.688 161.94C434.648 161.46 435.448 160.84 436.088 160.08C436.768 159.32 437.268 158.44 437.588 157.44C437.908 156.44 438.048 155.36 438.008 154.2C437.928 153 437.648 151.94 437.168 151.02C436.728 150.06 436.108 149.26 435.308 148.62C434.548 147.98 433.648 147.52 432.608 147.24C431.608 146.92 430.528 146.82 429.368 146.94C427.088 147.14 425.248 147.98 423.848 149.46C422.488 150.94 421.808 152.82 421.808 155.1C421.808 156.26 422.028 157.34 422.468 158.34C422.908 159.3 423.508 160.12 424.268 160.8C425.028 161.48 425.928 162 426.968 162.36C428.008 162.72 429.148 162.86 430.388 162.78C431.628 162.7 432.728 162.42 433.688 161.94ZM473.161 139.44C474.841 140.28 476.021 141.54 476.701 143.22C477.501 141.82 478.561 140.7 479.881 139.86C481.241 139.02 482.741 138.5 484.381 138.3C485.901 138.14 487.341 138.26 488.701 138.66C490.101 139.06 491.321 139.72 492.361 140.64C493.401 141.52 494.221 142.66 494.821 144.06C495.421 145.42 495.721 147.02 495.721 148.86C495.721 150.7 495.681 152.56 495.601 154.44C495.521 156.28 495.421 158.06 495.301 159.78C495.181 161.5 495.041 163.12 494.881 164.64C494.721 166.16 494.561 167.52 494.401 168.72C494.281 169.52 493.741 170.2 492.781 170.76C491.861 171.32 490.821 171.56 489.661 171.48C489.141 171.44 488.621 171.36 488.101 171.24C487.621 171.12 487.181 170.92 486.781 170.64C486.381 170.4 486.061 170.06 485.821 169.62C485.581 169.22 485.461 168.7 485.461 168.06C485.461 166.94 485.461 165.64 485.461 164.16C485.501 162.68 485.521 161.16 485.521 159.6C485.561 158.04 485.581 156.52 485.581 155.04C485.621 153.56 485.641 152.26 485.641 151.14C485.641 149.78 485.321 148.72 484.681 147.96C484.081 147.2 483.141 146.86 481.861 146.94C480.701 147.02 479.841 147.4 479.281 148.08C478.721 148.72 478.421 149.56 478.381 150.6C478.341 151.96 478.281 153.54 478.201 155.34C478.161 157.14 478.081 158.94 477.961 160.74C477.881 162.54 477.781 164.22 477.661 165.78C477.581 167.3 477.481 168.5 477.361 169.38C477.281 170.02 476.741 170.5 475.741 170.82C474.741 171.18 473.661 171.32 472.501 171.24C471.581 171.16 470.701 170.94 469.861 170.58C469.021 170.26 468.581 169.64 468.541 168.72C468.501 167.56 468.461 166.22 468.421 164.7C468.421 163.14 468.421 161.56 468.421 159.96C468.421 158.32 468.421 156.72 468.421 155.16C468.421 153.56 468.401 152.16 468.361 150.96C468.281 149.64 467.941 148.62 467.341 147.9C466.741 147.18 465.821 146.86 464.581 146.94C463.301 147.06 462.401 147.48 461.881 148.2C461.361 148.88 461.101 149.86 461.101 151.14C461.101 153.62 461.101 155.72 461.101 157.44C461.101 159.16 461.081 160.64 461.041 161.88C461.041 163.12 461.021 164.18 460.981 165.06C460.981 165.9 460.961 166.7 460.921 167.46C460.721 170.06 459.141 171.36 456.181 171.36C453.621 171.36 452.221 170.14 451.981 167.7C451.661 163.7 451.381 159.56 451.141 155.28C450.941 151 450.841 146.52 450.841 141.84C450.841 140.84 451.141 139.98 451.741 139.26C452.341 138.54 453.561 138.18 455.401 138.18C456.521 138.18 457.461 138.32 458.221 138.6C459.021 138.88 459.641 139.36 460.081 140.04C460.201 140.24 460.301 140.42 460.381 140.58C460.461 140.74 460.521 140.92 460.561 141.12C460.601 141.28 460.621 141.5 460.621 141.78C460.621 142.06 460.621 142.44 460.621 142.92C460.981 141.76 461.781 140.72 463.021 139.8C464.261 138.88 465.781 138.38 467.581 138.3C469.661 138.18 471.521 138.56 473.161 139.44ZM507.461 174.48C507.061 174.92 506.681 175.32 506.321 175.68C505.961 176.04 505.541 176.32 505.061 176.52C504.621 176.72 504.121 176.8 503.561 176.76C503.001 176.76 502.301 176.6 501.461 176.28C500.501 175.92 499.821 175.54 499.421 175.14C499.021 174.74 498.781 174.34 498.701 173.94C498.661 173.54 498.741 173.12 498.941 172.68C499.181 172.28 499.441 171.86 499.721 171.42C501.881 168.18 503.561 164.78 504.761 161.22C506.001 157.62 506.621 153.62 506.621 149.22C506.621 144.86 505.941 140.9 504.581 137.34C503.261 133.74 501.521 130.32 499.361 127.08C499.081 126.64 498.821 126.22 498.581 125.82C498.381 125.38 498.301 124.96 498.341 124.56C498.421 124.16 498.661 123.76 499.061 123.36C499.461 122.96 500.141 122.58 501.101 122.22C501.941 121.9 502.641 121.74 503.201 121.74C503.761 121.7 504.261 121.78 504.701 121.98C505.181 122.18 505.601 122.48 505.961 122.88C506.321 123.24 506.701 123.62 507.101 124.02C508.221 125.18 509.301 126.64 510.341 128.4C511.381 130.12 512.281 132.08 513.041 134.28C513.841 136.44 514.461 138.8 514.901 141.36C515.381 143.88 515.621 146.5 515.621 149.22C515.621 151.98 515.401 154.64 514.961 157.2C514.561 159.72 513.981 162.08 513.221 164.28C512.501 166.44 511.641 168.38 510.641 170.1C509.641 171.86 508.581 173.32 507.461 174.48Z" fill="white"/>
</svg>
