<svg width="676" height="833" viewBox="0 0 676 833" fill="none" xmlns="http://www.w3.org/2000/svg">
<rect width="461" height="23" transform="matrix(-1 0 0 1 613 551)" fill="#B5C8DB"/>
<rect width="13" height="65" transform="matrix(-1 0 0 1 506 563)" fill="#B5C8DB"/>
<rect width="13" height="65" transform="matrix(-1 0 0 1 274 568)" fill="#B5C8DB"/>
<circle cx="18.5" cy="18.5" r="18.5" transform="matrix(-1 0 0 1 623 544)" fill="#B5C8DB"/>
<path fill-rule="evenodd" clip-rule="evenodd" d="M149 0H100V833H149V67H245V126H258V67H557V126H570V67H640.008C643.397 71.2652 648.629 74 654.5 74C664.717 74 673 65.7173 673 55.5C673 45.2827 664.717 37 654.5 37C648.629 37 643.397 39.7348 640.008 44H149V0Z" fill="#EDF3F8"/>
<path d="M135.328 105.064C139.94 100.008 148.296 101.842 150.368 108.364L192.123 239.804C194.195 246.327 188.429 252.646 181.745 251.179L47.0368 221.62C40.3522 220.153 37.7622 212 42.3748 206.945L135.328 105.064Z" fill="#FFC700" stroke="black" stroke-width="11.5957"/>
<path d="M149.803 187.652L111.841 213.745C111.439 214.02 110.958 214.157 110.47 214.136C109.983 214.114 109.515 213.935 109.138 213.626C108.761 213.317 108.495 212.894 108.38 212.421C108.266 211.948 108.308 211.45 108.502 211.004L116.931 191.818L102.405 182.423C102.093 182.222 101.836 181.947 101.656 181.622C101.477 181.298 101.38 180.934 101.376 180.564C101.372 180.194 101.46 179.828 101.632 179.5C101.804 179.172 102.055 178.892 102.362 178.684L140.325 152.591C140.727 152.316 141.208 152.179 141.695 152.2C142.183 152.222 142.65 152.401 143.027 152.71C143.404 153.02 143.67 153.443 143.785 153.916C143.9 154.389 143.857 154.886 143.664 155.332L135.218 174.537L149.746 183.924C150.056 184.126 150.31 184.4 150.488 184.723C150.666 185.046 150.762 185.408 150.766 185.776C150.771 186.144 150.684 186.508 150.515 186.834C150.345 187.161 150.097 187.441 149.792 187.649L149.803 187.652Z" fill="black"/>
<circle cx="100.797" cy="200.968" r="3.86525" transform="rotate(12.3764 100.797 200.968)" fill="black"/>
<path d="M206.532 619.168L141.718 504.803C136.358 495.346 123.032 494.552 116.588 503.306L38.6561 609.169C36.9396 611.5 35.9346 614.279 35.7624 617.169L33.6033 653.411C33.1106 661.68 39.4152 668.784 47.6849 669.276L190.431 677.779C198.701 678.271 205.804 671.967 206.296 663.698L208.456 627.456C208.628 624.566 207.96 621.687 206.532 619.168Z" fill="#2D4BE3" stroke="#1030D7" stroke-width="10"/>
<path d="M134.323 508.994L199.137 623.359C199.756 624.451 200.045 625.698 199.971 626.951L197.812 663.192C197.598 666.775 194.52 669.507 190.937 669.294L48.1903 660.791C44.6068 660.578 41.8748 657.5 42.0883 653.916L44.2474 617.675C44.322 616.422 44.7575 615.218 45.5013 614.208L123.433 508.345C126.226 504.552 132 504.896 134.323 508.994Z" fill="#1030D7" stroke="white" stroke-width="7"/>
<path d="M86.4865 633.724C86.5 633.497 86.5958 633.328 86.7738 633.218C86.932 633.121 87.1249 633.079 87.3527 633.093C87.5805 633.106 87.7671 633.171 87.9127 633.285C88.0953 633.418 88.1798 633.597 88.1663 633.824C88.1213 634.579 88.0023 635.459 87.8091 636.463C87.6133 637.513 87.356 638.634 87.0372 639.828C88.2958 641.404 89.3681 642.908 90.2543 644.34C91.2272 645.914 91.9932 647.446 92.5521 648.934C92.6335 649.167 92.6309 649.371 92.5442 649.548C92.4394 649.708 92.2902 649.813 92.0968 649.862C91.9034 649.911 91.7141 649.893 91.5288 649.806C91.3254 649.703 91.1825 649.543 91.1002 649.325C90.4635 647.862 89.7663 646.456 89.0085 645.108C88.182 643.633 87.3443 642.348 86.4953 641.251C85.8666 642.851 85.1742 644.242 84.418 645.425C83.5552 646.799 82.5396 648.02 81.3713 649.087C80.9899 649.413 80.6063 649.458 80.2203 649.223C79.8532 648.989 79.8717 648.679 80.2756 648.294C82.1542 646.496 83.6287 644.287 84.699 641.667C85.7224 639.196 86.3183 636.548 86.4865 633.724ZM100.844 633.965C100.867 633.572 101.154 633.392 101.705 633.425C102.255 633.458 102.519 633.67 102.495 634.063L101.44 651.783C101.428 651.98 101.324 652.133 101.127 652.242C100.968 652.354 100.784 652.404 100.575 652.391C100.347 652.378 100.161 652.313 100.015 652.199C99.8514 652.068 99.7755 651.904 99.7872 651.708L100.276 643.505L96.2329 643.264L95.7469 651.421C95.7343 651.633 95.6291 651.801 95.4312 651.926C95.273 652.022 95.0801 652.064 94.8523 652.05C94.6245 652.037 94.4379 651.973 94.2923 651.858C94.1296 651.712 94.0545 651.533 94.0671 651.321L95.1213 633.624C95.1447 633.231 95.4316 633.051 95.9821 633.084C96.5515 633.118 96.8245 633.331 96.8011 633.724L96.299 642.153L100.342 642.394L100.844 633.965Z" fill="white"/>
<path d="M129.369 640.03L113.539 639.087L113.346 642.327C113.325 642.69 113.404 642.953 113.585 643.115C113.785 643.278 114.141 643.375 114.654 643.406L127.75 644.186C128.244 644.215 128.599 644.168 128.816 644.045C129.034 643.906 129.154 643.641 129.178 643.248L129.369 640.03ZM129.606 636.065C129.619 635.838 129.715 635.669 129.893 635.559C130.052 635.447 130.255 635.398 130.502 635.413C130.729 635.427 130.916 635.491 131.061 635.606C131.244 635.738 131.329 635.909 131.317 636.121L130.874 643.553C130.836 644.188 130.56 644.657 130.047 644.96C129.553 645.264 128.869 645.39 127.996 645.338L114.13 644.512C113.352 644.465 112.735 644.27 112.28 643.924C111.806 643.562 111.587 643.087 111.622 642.498L112.066 635.043C112.079 634.816 112.176 634.64 112.355 634.514C112.513 634.417 112.715 634.376 112.962 634.391C113.19 634.405 113.376 634.469 113.522 634.583C113.704 634.716 113.789 634.895 113.776 635.122L113.609 637.909L129.44 638.852L129.606 636.065ZM120.235 646.126C120.246 645.93 120.341 645.784 120.518 645.688C120.676 645.591 120.868 645.557 121.095 645.586C121.304 645.599 121.481 645.67 121.625 645.8C121.808 645.932 121.893 646.104 121.88 646.315L121.606 650.915L131.828 651.524C132.093 651.54 132.299 651.605 132.445 651.72C132.589 651.85 132.657 651.99 132.648 652.141C132.639 652.292 132.555 652.424 132.396 652.536C132.237 652.647 132.034 652.696 131.787 652.681L109.437 651.35C109.229 651.338 109.071 651.268 108.964 651.14C108.857 651.012 108.818 650.873 108.846 650.724C108.874 650.574 108.958 650.442 109.098 650.329C109.256 650.232 109.468 650.192 109.734 650.208L119.955 650.817L120.235 646.126Z" fill="white"/>
<path d="M160.313 640.509C160.807 640.538 161.052 640.742 161.048 641.121C161.044 641.515 160.804 641.698 160.33 641.67L141.026 640.52C140.495 640.488 140.241 640.276 140.264 639.883C140.287 639.505 140.564 639.332 141.095 639.364L160.313 640.509ZM156.048 637.276C156.542 637.305 156.787 637.517 156.782 637.911C156.778 638.305 156.548 638.488 156.092 638.461L145.643 637.838C145.112 637.807 144.858 637.595 144.881 637.202C144.905 636.809 145.182 636.629 145.713 636.66L156.048 637.276ZM150.523 642.745C153.332 642.913 155.53 643.423 157.117 644.275C158.576 645.044 159.275 645.943 159.214 646.97C159.152 648.012 158.35 648.836 156.81 649.442C155.151 650.101 152.908 650.346 150.08 650.178C147.233 650.008 145.025 649.498 143.457 648.646C142.036 647.864 141.357 646.952 141.419 645.91C141.481 644.883 142.262 644.073 143.764 643.48C145.442 642.822 147.694 642.577 150.523 642.745ZM150.452 643.924C148.118 643.785 146.29 643.926 144.97 644.348C143.766 644.731 143.142 645.285 143.099 646.01C143.056 646.735 143.609 647.367 144.758 647.905C146.018 648.496 147.815 648.861 150.15 649C152.466 649.138 154.284 648.988 155.605 648.551C156.829 648.154 157.463 647.593 157.506 646.868C157.549 646.143 156.986 645.518 155.817 644.994C154.556 644.418 152.768 644.062 150.452 643.924ZM150.733 652.65L160.982 653.261C161.248 653.276 161.454 653.342 161.599 653.456C161.744 653.586 161.812 653.727 161.803 653.878C161.794 654.029 161.719 654.161 161.579 654.274C161.439 654.387 161.246 654.436 160.999 654.421L138.734 653.095C138.203 653.063 137.958 652.852 138.001 652.46C138.042 652.084 138.338 651.912 138.889 651.944L149.081 652.552L149.245 649.81L150.896 649.908L150.733 652.65Z" fill="white"/>
<path fill-rule="evenodd" clip-rule="evenodd" d="M87.5807 624.569L105.787 607.622L88.6509 606.601L70.4444 623.549L87.5807 624.569ZM110.429 625.93L128.636 608.983L111.499 607.962L93.2928 624.91L110.429 625.93ZM174.332 611.705L156.126 628.652L138.99 627.632L157.196 610.684L174.332 611.705ZM133.277 627.291L151.484 610.344L134.348 609.323L116.141 626.271L133.277 627.291Z" fill="white"/>
<path d="M130.255 604.629L132.534 604.765L132.358 607.726L130.079 607.59L130.255 604.629Z" fill="#D9D9D9"/>
<rect x="115.573" y="603.755" width="2.28309" height="2.966" transform="rotate(3.40883 115.573 603.755)" fill="#D9D9D9"/>
<path d="M99.6299 580.665C100.466 566.63 112.521 555.931 126.555 556.767V556.767C140.464 557.595 151.067 569.541 150.238 583.45L149.814 590.581C149.304 599.131 141.961 605.649 133.411 605.14L113.777 603.97C105.227 603.461 98.7095 596.117 99.2187 587.567L99.6299 580.665Z" fill="#F6F6F6"/>
<path fill-rule="evenodd" clip-rule="evenodd" d="M103.595 568.456C103.47 568.411 103.341 568.372 103.209 568.34C101.597 567.953 100.03 568.728 99.7081 570.071C99.4377 571.198 100.13 572.366 101.312 572.941C101.927 571.361 102.694 569.86 103.595 568.456Z" fill="#F6F6F6"/>
<ellipse cx="111.23" cy="567.986" rx="1.82647" ry="1.69486" transform="rotate(3.40883 111.23 567.986)" fill="#1030D7"/>
<path d="M133.461 456.817C179 446.821 207.813 401.802 197.817 356.264C187.822 310.725 142.802 281.912 97.2637 291.908C51.7251 301.903 22.9119 346.922 32.9076 392.461C42.9032 438 87.9225 466.813 133.461 456.817Z" fill="white" stroke="#CE0404" stroke-width="2"/>
<path d="M188.705 358.741C197.528 398.94 172.093 438.681 131.894 447.505C91.6953 456.328 51.9545 430.894 43.1309 390.694C34.3072 350.495 59.7421 310.755 99.9412 301.931C140.14 293.107 179.881 318.542 188.705 358.741Z" fill="white" stroke="#CE0404" stroke-width="15"/>
<rect x="51.7686" y="338.958" width="18.1491" height="148.195" transform="rotate(-57.38 51.7686 338.958)" fill="#CE0404"/>
<path d="M95.801 405.382L83.7882 397.815L83.7879 397.815C83.1408 397.408 82.4202 397.132 81.6678 397.002C80.9156 396.871 80.1451 396.889 79.3998 397.053C77.8962 397.383 76.5762 398.289 75.7345 399.583C75.3175 400.224 75.0305 400.942 74.8919 401.695C74.7533 402.449 74.7662 403.222 74.9306 403.971C75.095 404.72 75.4073 405.428 75.8488 406.054C76.2902 406.681 76.8513 407.212 77.4985 407.62L101.353 422.641C101.354 422.641 101.354 422.641 101.355 422.642C102.002 423.049 102.722 423.325 103.474 423.456C104.227 423.586 104.997 423.569 105.743 423.405C106.488 423.241 107.196 422.935 107.824 422.501C108.453 422.067 108.991 421.515 109.408 420.874C109.408 420.874 109.409 420.873 109.409 420.873L124.78 397.242C125.622 395.946 125.916 394.367 125.584 392.853C125.251 391.339 124.323 390.028 123.016 389.205C121.709 388.382 120.131 388.112 118.627 388.442C117.124 388.772 115.804 389.679 114.962 390.973L114.962 390.973L107.223 402.875L98.1903 361.725C97.2099 357.259 98.0684 352.573 100.589 348.697C103.111 344.82 107.09 342.073 111.656 341.071C116.222 340.069 120.986 340.897 124.899 343.361C128.812 345.825 131.554 349.72 132.534 354.187L140.312 389.62C140.644 391.134 141.572 392.444 142.879 393.267C144.185 394.09 145.763 394.36 147.266 394.03C148.769 393.7 150.088 392.794 150.93 391.5C151.772 390.205 152.066 388.627 151.733 387.113L143.956 351.68C142.311 344.186 137.714 337.67 131.187 333.56C124.661 329.451 116.742 328.083 109.17 329.745C101.598 331.407 94.9794 335.966 90.7748 342.43C86.5693 348.896 85.1238 356.739 86.7687 364.232L95.801 405.382Z" fill="black" stroke="black" stroke-width="5"/>
<rect x="199.5" y="630.5" width="373.557" height="158.723" rx="10.6359" fill="#0093F3" stroke="#0093F3" stroke-width="5"/>
<mask id="path-23-inside-1_666_313" fill="white">
<rect x="202" y="633" width="368.557" height="153.723" rx="8.13592"/>
</mask>
<rect x="202" y="633" width="368.557" height="153.723" rx="8.13592" fill="#0093F3" stroke="white" stroke-width="30" mask="url(#path-23-inside-1_666_313)"/>
<mask id="path-24-outside-2_666_313" maskUnits="userSpaceOnUse" x="190" y="111" width="486" height="121" fill="black">
<rect fill="white" x="190" y="111" width="486" height="121"/>
<path fill-rule="evenodd" clip-rule="evenodd" d="M609.679 126.038C609.679 126.017 609.662 126 609.641 126H220C211.716 126 205 132.716 205 141V202C205 210.284 211.716 217 220 217H604.71C607.936 217 611.076 215.96 613.665 214.034L654.726 183.478C662.786 177.48 662.786 165.408 654.726 159.41L609.871 126.031C609.847 126.013 609.813 126.013 609.789 126.031L609.739 126.068C609.714 126.087 609.679 126.069 609.679 126.038V126.038Z"/>
</mask>
<path fill-rule="evenodd" clip-rule="evenodd" d="M609.679 126.038C609.679 126.017 609.662 126 609.641 126H220C211.716 126 205 132.716 205 141V202C205 210.284 211.716 217 220 217H604.71C607.936 217 611.076 215.96 613.665 214.034L654.726 183.478C662.786 177.48 662.786 165.408 654.726 159.41L609.871 126.031C609.847 126.013 609.813 126.013 609.789 126.031L609.739 126.068C609.714 126.087 609.679 126.069 609.679 126.038V126.038Z" fill="#0093F3"/>
<path d="M609.739 126.068L618.694 138.102L609.739 126.068ZM609.871 126.031L600.916 138.064L609.871 126.031ZM609.789 126.031L600.834 113.997L609.789 126.031ZM654.726 183.478L645.771 171.444L654.726 183.478ZM613.665 214.034L622.62 226.067L613.665 214.034ZM220 141H609.641V111H220V141ZM220 202V141H190V202H220ZM604.71 202H220V232H604.71V202ZM645.771 171.444L604.71 202L622.62 226.067L663.681 195.511L645.771 171.444ZM600.916 138.064L645.771 171.444L663.681 147.377L618.826 113.997L600.916 138.064ZM618.694 138.102L618.744 138.064L600.834 113.997L600.784 114.034L618.694 138.102ZM600.784 114.034C610.654 106.689 624.679 113.734 624.679 126.038H594.679C594.679 138.404 608.774 145.484 618.694 138.102L600.784 114.034ZM618.826 113.997C613.487 110.024 606.173 110.024 600.834 113.997L618.744 138.064C613.453 142.001 606.207 142.001 600.916 138.064L618.826 113.997ZM663.681 195.511C679.8 183.515 679.801 159.373 663.681 147.377L645.771 171.444C645.79 171.459 645.8 171.468 645.803 171.471C645.806 171.473 645.804 171.472 645.8 171.467C645.796 171.462 645.791 171.455 645.786 171.447C645.781 171.439 645.777 171.432 645.773 171.425C645.767 171.412 645.766 171.407 645.767 171.412C645.768 171.414 645.769 171.418 645.769 171.424C645.77 171.43 645.771 171.437 645.771 171.444C645.771 171.451 645.77 171.458 645.769 171.464C645.769 171.47 645.768 171.474 645.767 171.476C645.766 171.481 645.767 171.476 645.773 171.463C645.777 171.456 645.781 171.449 645.786 171.441C645.791 171.433 645.796 171.426 645.8 171.421C645.804 171.416 645.806 171.415 645.803 171.417C645.8 171.42 645.79 171.429 645.771 171.444L663.681 195.511ZM604.71 232C611.162 232 617.443 229.919 622.62 226.067L604.71 202L604.71 202V232ZM190 202C190 218.569 203.431 232 220 232V202L220 202H190ZM609.641 141C601.378 141 594.679 134.302 594.679 126.038H624.679C624.679 117.732 617.945 111 609.641 111V141ZM220 111C203.431 111 190 124.431 190 141H220L220 141V111Z" fill="white" mask="url(#path-24-outside-2_666_313)"/>
<path d="M267.944 192.6C267.384 194.16 266.464 195.54 265.184 196.74C263.944 197.94 262.324 198.9 260.324 199.62C258.364 200.38 256.024 200.82 253.304 200.94C250.664 201.06 248.344 200.84 246.344 200.28C244.384 199.72 242.764 198.9 241.484 197.82C240.204 196.78 239.244 195.52 238.604 194.04C237.964 192.56 237.644 190.94 237.644 189.18C237.644 187.54 237.944 185.98 238.544 184.5C239.144 183.02 240.044 181.7 241.244 180.54C242.484 179.34 244.044 178.36 245.924 177.6C247.844 176.84 250.104 176.38 252.704 176.22C257.784 175.94 261.664 176.82 264.344 178.86C267.024 180.86 268.464 183.76 268.664 187.56C268.744 189.36 268.504 191.04 267.944 192.6ZM231.764 168.3C231.764 169.06 232.164 169.4 232.964 169.32C233.684 169.28 234.544 169.24 235.544 169.2C236.544 169.12 237.584 169.04 238.664 168.96C239.784 168.88 240.904 168.8 242.024 168.72C243.184 168.64 244.244 168.56 245.204 168.48C246.124 168.4 246.784 168.58 247.184 169.02C247.624 169.42 247.884 170.2 247.964 171.36C248.004 172.08 247.964 172.66 247.844 173.1C247.764 173.5 247.624 173.82 247.424 174.06C247.224 174.3 246.964 174.48 246.644 174.6C246.364 174.68 246.064 174.76 245.744 174.84C243.104 175.44 240.304 175.94 237.344 176.34C234.424 176.74 231.424 177 228.344 177.12C225.544 177.24 223.984 176.3 223.664 174.3C223.544 173.62 223.444 172.8 223.364 171.84C223.284 170.88 223.204 169.88 223.124 168.84C223.044 167.76 222.984 166.7 222.944 165.66C222.904 164.58 222.884 163.6 222.884 162.72C222.884 161.48 223.504 160.74 224.744 160.5C225.624 160.34 226.644 160.16 227.804 159.96C228.964 159.76 230.124 159.58 231.284 159.42C232.484 159.22 233.644 159.04 234.764 158.88C235.924 158.72 236.964 158.58 237.884 158.46L237.644 153.54C236.844 153.58 235.964 153.62 235.004 153.66C234.044 153.66 233.044 153.66 232.004 153.66C231.004 153.66 229.984 153.66 228.944 153.66C227.904 153.66 226.944 153.66 226.064 153.66C225.504 153.66 225.024 153.62 224.624 153.54C224.224 153.42 223.884 153.24 223.604 153C223.364 152.72 223.184 152.32 223.064 151.8C222.944 151.28 222.884 150.58 222.884 149.7C222.884 148.78 222.944 148.06 223.064 147.54C223.184 146.98 223.344 146.56 223.544 146.28C223.784 145.96 224.084 145.76 224.444 145.68C224.804 145.56 225.224 145.48 225.704 145.44C227.024 145.4 228.544 145.36 230.264 145.32C232.024 145.24 233.824 145.18 235.664 145.14C237.504 145.1 239.284 145.06 241.004 145.02C242.764 144.98 244.284 144.94 245.564 144.9C246.484 144.9 246.944 145.4 246.944 146.4C246.984 147.96 247.004 149.36 247.004 150.6C247.044 151.8 247.064 152.98 247.064 154.14C247.104 155.3 247.124 156.48 247.124 157.68C247.124 158.88 247.124 160.26 247.124 161.82C247.124 162.82 246.904 163.58 246.464 164.1C246.064 164.58 245.364 164.9 244.364 165.06C243.564 165.18 242.584 165.32 241.424 165.48C240.304 165.6 239.144 165.74 237.944 165.9C236.784 166.02 235.644 166.14 234.524 166.26C233.404 166.38 232.484 166.48 231.764 166.56V168.3ZM260.984 163.92C260.424 163.92 259.844 163.92 259.244 163.92C259.204 165.2 259.164 166.5 259.124 167.82C259.084 169.1 259.024 170.44 258.944 171.84C258.864 173.04 258.444 173.86 257.684 174.3C256.924 174.74 255.884 174.96 254.564 174.96C253.324 174.96 252.344 174.74 251.624 174.3C250.944 173.86 250.564 172.98 250.484 171.66C250.404 170.62 250.344 169.18 250.304 167.34C250.264 165.46 250.224 163.46 250.184 161.34C250.184 159.22 250.164 157.1 250.124 154.98C250.124 152.82 250.124 150.92 250.124 149.28C250.124 148.2 250.424 147.34 251.024 146.7C251.624 146.06 252.804 145.72 254.564 145.68C256.324 145.64 257.544 145.92 258.224 146.52C258.904 147.12 259.244 147.92 259.244 148.92C259.244 149.96 259.244 151.06 259.244 152.22C259.244 153.34 259.264 154.52 259.304 155.76C259.904 155.72 260.484 155.72 261.044 155.76C261.604 155.76 262.144 155.76 262.664 155.76C262.664 154.52 262.664 153.32 262.664 152.16C262.664 150.96 262.684 149.9 262.724 148.98C262.724 147.94 263.024 147.12 263.624 146.52C264.224 145.88 265.384 145.56 267.104 145.56C268.984 145.56 270.264 145.9 270.944 146.58C271.624 147.26 271.944 148.06 271.904 148.98C271.824 150.74 271.744 152.8 271.664 155.16C271.624 157.52 271.544 159.9 271.424 162.3C271.344 164.7 271.244 166.98 271.124 169.14C271.044 171.3 270.944 173.04 270.824 174.36C270.584 176.64 269.104 177.72 266.384 177.6C265.184 177.52 264.264 177.22 263.624 176.7C263.024 176.18 262.724 175.26 262.724 173.94C262.724 172.78 262.704 171.32 262.664 169.56C262.664 167.8 262.664 165.9 262.664 163.86C262.104 163.9 261.544 163.92 260.984 163.92ZM253.184 193.98C255.184 193.9 256.684 193.34 257.684 192.3C258.724 191.3 259.184 189.84 259.064 187.92C258.944 186.16 258.344 184.92 257.264 184.2C256.184 183.44 254.804 183.1 253.124 183.18C251.284 183.26 249.824 183.82 248.744 184.86C247.664 185.86 247.164 187.18 247.244 188.82C247.324 190.5 247.884 191.8 248.924 192.72C249.964 193.64 251.384 194.06 253.184 193.98ZM317.048 196.44C315.808 197.72 314.188 198.76 312.188 199.56C310.228 200.36 307.888 200.82 305.168 200.94C302.528 201.06 300.208 200.8 298.208 200.16C296.248 199.56 294.628 198.68 293.348 197.52C292.068 196.4 291.108 195.06 290.468 193.5C289.828 191.98 289.508 190.34 289.508 188.58C289.508 186.94 289.808 185.34 290.408 183.78C291.008 182.22 291.908 180.82 293.108 179.58C294.348 178.34 295.908 177.32 297.788 176.52C299.708 175.68 301.968 175.18 304.568 175.02C307.088 174.86 309.328 175.04 311.288 175.56C313.248 176.08 314.888 176.86 316.208 177.9C317.568 178.94 318.608 180.24 319.328 181.8C320.048 183.32 320.448 185.04 320.528 186.96C320.608 188.76 320.368 190.46 319.808 192.06C319.248 193.7 318.328 195.16 317.048 196.44ZM305.888 150.72C305.888 152.2 305.868 153.78 305.828 155.46C305.828 157.1 305.788 158.78 305.708 160.5C305.668 162.18 305.588 163.84 305.468 165.48C305.388 167.08 305.268 168.6 305.108 170.04C304.948 171.44 304.548 172.5 303.908 173.22C303.268 173.9 302.048 174.24 300.248 174.24C298.568 174.24 297.448 173.86 296.888 173.1C296.368 172.34 296.068 171.24 295.988 169.8C295.948 169.28 295.908 168.74 295.868 168.18C295.868 167.62 295.848 167.04 295.808 166.44C294.528 166.56 293.188 166.68 291.788 166.8C290.428 166.88 289.048 166.98 287.648 167.1C286.288 167.18 284.928 167.26 283.568 167.34C282.248 167.42 280.988 167.48 279.788 167.52C278.828 167.56 278.068 167.34 277.508 166.86C276.948 166.38 276.628 165.34 276.548 163.74C276.468 162.42 276.628 161.42 277.028 160.74C277.428 160.02 278.208 159.62 279.368 159.54C281.968 159.34 284.688 159.14 287.528 158.94C290.408 158.74 293.128 158.56 295.688 158.4C295.688 157.6 295.688 156.82 295.688 156.06C295.688 155.3 295.708 154.58 295.748 153.9C292.868 153.9 289.968 153.9 287.048 153.9C284.128 153.86 281.248 153.8 278.408 153.72C277.728 153.68 277.068 153.36 276.428 152.76C275.788 152.16 275.488 151.06 275.528 149.46C275.568 148.14 275.808 147.18 276.248 146.58C276.688 145.94 277.488 145.58 278.648 145.5C282.648 145.3 286.408 145.16 289.928 145.08C293.448 144.96 297.088 144.9 300.848 144.9C301.728 144.9 302.488 144.92 303.128 144.96C303.768 144.96 304.288 145.06 304.688 145.26C305.088 145.42 305.388 145.68 305.588 146.04C305.788 146.4 305.888 146.92 305.888 147.6V150.72ZM311.588 160.86C311.548 157.02 311.568 153.1 311.648 149.1C311.648 147.58 312.268 146.58 313.508 146.1C314.468 145.74 315.568 145.58 316.808 145.62C318.048 145.62 319.128 145.8 320.048 146.16C320.688 146.4 321.108 146.74 321.308 147.18C321.548 147.62 321.668 148.24 321.668 149.04C321.708 150.92 321.728 152.84 321.728 154.8C321.728 156.76 321.708 158.72 321.668 160.68C321.668 162.6 321.628 164.48 321.548 166.32C321.508 168.16 321.428 169.88 321.308 171.48C321.228 172.36 320.988 173.06 320.588 173.58C320.228 174.06 319.648 174.46 318.848 174.78C318.608 174.86 318.268 174.94 317.828 175.02C317.388 175.06 316.908 175.1 316.388 175.14C315.868 175.14 315.368 175.12 314.888 175.08C314.408 175 314.028 174.9 313.748 174.78C313.228 174.54 312.768 174.18 312.368 173.7C312.008 173.18 311.828 172.52 311.828 171.72C311.748 168.32 311.668 164.7 311.588 160.86ZM305.048 193.74C307.048 193.66 308.548 193.04 309.548 191.88C310.588 190.76 311.048 189.24 310.928 187.32C310.808 185.56 310.208 184.26 309.128 183.42C308.048 182.54 306.668 182.14 304.988 182.22C303.148 182.3 301.688 182.92 300.608 184.08C299.528 185.2 299.028 186.58 299.108 188.22C299.188 189.9 299.748 191.26 300.788 192.3C301.828 193.34 303.248 193.82 305.048 193.74ZM361.628 194.94C361.588 195.34 361.368 195.74 360.968 196.14C360.568 196.54 359.888 196.92 358.928 197.28C358.088 197.6 357.388 197.76 356.828 197.76C356.268 197.8 355.748 197.72 355.268 197.52C354.828 197.32 354.428 197.04 354.068 196.68C353.708 196.32 353.328 195.92 352.928 195.48C351.768 194.32 350.688 192.86 349.688 191.1C348.728 189.38 347.868 187.44 347.108 185.28C346.388 183.08 345.808 180.72 345.368 178.2C344.968 175.64 344.768 172.98 344.768 170.22C344.768 167.5 344.988 164.88 345.428 162.36C345.908 159.8 346.528 157.44 347.288 155.28C348.088 153.08 348.988 151.12 349.988 149.4C351.028 147.64 352.128 146.18 353.288 145.02C353.688 144.62 354.068 144.24 354.428 143.88C354.788 143.48 355.188 143.18 355.628 142.98C356.108 142.78 356.628 142.7 357.188 142.74C357.748 142.74 358.448 142.9 359.288 143.22C360.248 143.58 360.928 143.96 361.328 144.36C361.728 144.76 361.948 145.16 361.988 145.56C362.068 145.96 361.988 146.38 361.748 146.82C361.548 147.22 361.308 147.64 361.028 148.08C358.868 151.32 357.108 154.74 355.748 158.34C354.428 161.9 353.768 165.86 353.768 170.22C353.768 174.62 354.368 178.62 355.568 182.22C356.808 185.78 358.508 189.18 360.668 192.42C360.948 192.86 361.188 193.28 361.388 193.68C361.628 194.12 361.708 194.54 361.628 194.94ZM398.799 170.1C397.679 172.22 396.099 173.84 394.059 174.96C394.419 175.88 394.819 176.84 395.259 177.84C395.699 178.84 396.119 179.86 396.519 180.9C396.959 181.9 397.359 182.9 397.719 183.9C398.119 184.86 398.439 185.76 398.679 186.6C398.919 187.48 398.819 188.44 398.379 189.48C397.939 190.56 397.039 191.32 395.679 191.76C394.519 192.12 393.519 192.12 392.679 191.76C391.839 191.4 391.039 190.58 390.279 189.3C390.079 188.9 389.759 188.22 389.319 187.26C388.879 186.26 388.399 185.16 387.879 183.96C387.359 182.76 386.839 181.56 386.319 180.36C385.839 179.12 385.419 178.04 385.059 177.12C383.259 177.32 381.559 177.44 379.959 177.48C378.359 177.48 376.659 177.38 374.859 177.18C374.859 178.06 374.839 178.98 374.799 179.94C374.799 180.86 374.779 181.78 374.739 182.7C374.699 183.58 374.639 184.4 374.559 185.16C374.519 185.92 374.479 186.56 374.439 187.08C374.239 188.84 373.799 190.16 373.119 191.04C372.479 191.92 371.319 192.36 369.639 192.36C368.239 192.36 367.199 192 366.519 191.28C365.839 190.6 365.459 189.36 365.379 187.56C365.299 184.72 365.239 181.76 365.199 178.68C365.159 175.56 365.139 172.42 365.139 169.26C365.139 166.1 365.159 162.98 365.199 159.9C365.239 156.78 365.299 153.78 365.379 150.9C365.419 150.06 365.579 149.46 365.859 149.1C366.139 148.74 366.619 148.52 367.299 148.44C368.339 148.32 369.539 148.22 370.899 148.14C372.299 148.06 373.739 148 375.219 147.96C376.699 147.92 378.179 147.9 379.659 147.9C381.139 147.86 382.519 147.84 383.799 147.84C386.319 147.84 388.579 148.12 390.579 148.68C392.619 149.24 394.339 150.1 395.739 151.26C397.179 152.38 398.299 153.82 399.099 155.58C399.899 157.34 400.319 159.42 400.359 161.82C400.439 165.22 399.919 167.98 398.799 170.1ZM375.159 162.96C375.119 165.08 375.079 167.1 375.039 169.02C375.639 169.06 376.339 169.1 377.139 169.14C377.939 169.14 378.739 169.14 379.539 169.14C380.379 169.14 381.179 169.14 381.939 169.14C382.699 169.1 383.359 169.04 383.919 168.96C385.999 168.72 387.639 168.18 388.839 167.34C390.039 166.5 390.679 165.02 390.759 162.9C390.799 161.7 390.659 160.72 390.339 159.96C390.019 159.16 389.559 158.52 388.959 158.04C388.359 157.56 387.619 157.22 386.739 157.02C385.899 156.82 384.939 156.7 383.859 156.66C382.619 156.62 381.219 156.62 379.659 156.66C378.099 156.7 376.659 156.8 375.339 156.96C375.299 158.84 375.239 160.84 375.159 162.96ZM429.657 191.76C429.097 191.76 428.737 191.54 428.577 191.1C428.377 190.42 428.177 189.76 427.977 189.12C427.777 188.48 427.537 187.72 427.257 186.84C426.777 187.6 426.157 188.3 425.397 188.94C424.677 189.58 423.857 190.14 422.937 190.62C422.057 191.1 421.097 191.48 420.057 191.76C419.057 192.08 418.077 192.26 417.117 192.3C414.997 192.42 412.957 192.12 410.997 191.4C409.037 190.68 407.317 189.6 405.837 188.16C404.397 186.72 403.237 184.98 402.357 182.94C401.517 180.86 401.117 178.54 401.157 175.98C401.197 173.22 401.677 170.78 402.597 168.66C403.517 166.54 404.737 164.76 406.257 163.32C407.777 161.88 409.517 160.82 411.477 160.14C413.437 159.42 415.477 159.12 417.597 159.24C419.877 159.36 421.777 159.84 423.297 160.68C424.857 161.52 425.917 162.64 426.477 164.04L426.777 161.22C426.897 160.22 427.237 159.66 427.797 159.54C429.077 159.34 430.237 159.24 431.277 159.24C432.317 159.24 433.457 159.34 434.697 159.54C435.617 159.74 436.097 160.54 436.137 161.94C436.177 163.34 436.197 164.8 436.197 166.32C436.237 167.8 436.257 169.28 436.257 170.76C436.257 174.48 436.217 178.04 436.137 181.44C436.057 184.8 435.957 187.56 435.837 189.72C435.797 190.4 435.577 190.9 435.177 191.22C434.817 191.58 434.337 191.76 433.737 191.76H429.657ZM422.637 182.94C423.517 182.5 424.257 181.94 424.857 181.26C425.497 180.54 425.997 179.72 426.357 178.8C426.717 177.84 426.897 176.78 426.897 175.62C426.857 173.34 426.157 171.5 424.797 170.1C423.477 168.7 421.617 167.92 419.217 167.76C417.937 167.68 416.757 167.84 415.677 168.24C414.597 168.6 413.637 169.14 412.797 169.86C411.997 170.58 411.357 171.46 410.877 172.5C410.437 173.5 410.217 174.62 410.217 175.86C410.217 177.3 410.457 178.58 410.937 179.7C411.417 180.78 412.097 181.66 412.977 182.34C413.857 183.02 414.877 183.5 416.037 183.78C417.237 184.06 418.537 184.08 419.937 183.84C420.897 183.68 421.797 183.38 422.637 182.94ZM449.857 179.94C449.857 182.22 449.817 184.88 449.737 187.92C449.657 189.28 449.357 190.34 448.837 191.1C448.357 191.86 447.417 192.28 446.017 192.36C444.457 192.44 443.277 192.12 442.477 191.4C441.677 190.68 441.217 189.68 441.097 188.4C440.737 184.4 440.437 180.32 440.197 176.16C439.957 172 439.837 167.56 439.837 162.84C439.837 162.36 439.897 161.92 440.017 161.52C440.137 161.08 440.377 160.7 440.737 160.38C441.097 160.06 441.597 159.8 442.237 159.6C442.877 159.4 443.717 159.26 444.757 159.18C445.837 159.1 446.697 159.12 447.337 159.24C447.977 159.32 448.457 159.52 448.777 159.84C449.137 160.12 449.377 160.52 449.497 161.04C449.617 161.56 449.717 162.24 449.797 163.08C450.677 161.92 451.897 161.04 453.457 160.44C455.057 159.8 456.657 159.42 458.257 159.3C460.017 159.18 461.637 159.32 463.117 159.72C464.637 160.08 465.937 160.7 467.017 161.58C468.137 162.46 468.997 163.6 469.597 165C470.237 166.36 470.557 167.96 470.557 169.8C470.557 172.36 470.517 174.64 470.437 176.64C470.397 178.6 470.317 180.36 470.197 181.92C470.117 183.48 469.997 184.88 469.837 186.12C469.677 187.32 469.477 188.42 469.237 189.42C468.997 190.5 468.377 191.3 467.377 191.82C466.417 192.34 465.417 192.56 464.377 192.48C463.617 192.4 462.937 192.12 462.337 191.64C461.737 191.2 461.397 190.34 461.317 189.06C461.237 187.94 461.177 186.72 461.137 185.4C461.137 184.04 461.137 182.68 461.137 181.32C461.137 179.92 461.137 178.56 461.137 177.24C461.137 175.88 461.137 174.62 461.137 173.46C461.097 171.54 460.517 170.12 459.397 169.2C458.277 168.28 456.877 167.86 455.197 167.94C453.477 168.02 452.157 168.54 451.237 169.5C450.357 170.42 449.917 171.62 449.917 173.1C449.917 175.34 449.897 177.62 449.857 179.94ZM483.954 187.92C483.914 189.36 483.654 190.44 483.174 191.16C482.694 191.88 481.754 192.28 480.354 192.36C478.794 192.44 477.634 192.12 476.874 191.4C476.114 190.68 475.674 189.68 475.554 188.4C475.354 186.24 475.174 183.56 475.014 180.36C474.894 177.16 474.774 173.78 474.654 170.22C474.534 166.66 474.434 163.08 474.354 159.48C474.314 155.88 474.294 152.64 474.294 149.76C474.294 149.28 474.354 148.82 474.474 148.38C474.594 147.9 474.834 147.5 475.194 147.18C475.554 146.86 476.054 146.6 476.694 146.4C477.334 146.2 478.174 146.1 479.214 146.1C480.174 146.1 480.954 146.2 481.554 146.4C482.154 146.6 482.634 146.86 482.994 147.18C483.354 147.5 483.594 147.9 483.714 148.38C483.874 148.82 483.954 149.3 483.954 149.82C483.994 151.26 484.014 152.88 484.014 154.68C484.054 156.48 484.074 158.38 484.074 160.38C484.114 162.38 484.134 164.4 484.134 166.44C484.134 168.48 484.134 170.46 484.134 172.38C486.574 170.38 489.234 168.3 492.114 166.14C495.034 163.94 497.874 161.88 500.634 159.96C501.594 159.28 502.514 158.94 503.394 158.94C504.274 158.9 505.134 159.36 505.974 160.32C507.134 161.72 507.734 162.96 507.774 164.04C507.854 165.12 507.174 166.22 505.734 167.34C504.494 168.3 503.254 169.26 502.014 170.22C500.774 171.18 499.514 172.12 498.234 173.04C498.994 174.24 499.794 175.56 500.634 177C501.474 178.4 502.254 179.76 502.974 181.08C503.734 182.36 504.394 183.52 504.954 184.56C505.554 185.6 505.954 186.38 506.154 186.9C506.594 188.02 506.714 188.98 506.514 189.78C506.314 190.62 505.514 191.32 504.114 191.88C502.994 192.36 501.974 192.52 501.054 192.36C500.174 192.2 499.334 191.54 498.534 190.38C498.174 189.86 497.694 189.08 497.094 188.04C496.494 186.96 495.854 185.82 495.174 184.62C494.494 183.42 493.814 182.24 493.134 181.08C492.494 179.88 491.954 178.88 491.514 178.08C490.074 178.96 488.734 179.8 487.494 180.6C486.254 181.4 485.094 182.14 484.014 182.82L483.954 187.92ZM520.396 182.34C520.316 184.58 520.256 186.54 520.216 188.22C520.136 189.62 519.836 190.64 519.316 191.28C518.836 191.92 517.916 192.28 516.556 192.36C515.036 192.44 513.876 192.1 513.076 191.34C512.276 190.62 511.796 189.64 511.636 188.4C511.596 187.64 511.536 186.62 511.456 185.34C511.416 184.02 511.356 182.56 511.276 180.96C511.196 179.36 511.116 177.7 511.036 175.98C510.996 174.22 510.936 172.52 510.856 170.88C510.816 169.24 510.776 167.72 510.736 166.32C510.696 164.92 510.676 163.78 510.676 162.9C510.676 162.42 510.736 161.96 510.856 161.52C510.976 161.04 511.216 160.64 511.576 160.32C511.936 160 512.436 159.74 513.076 159.54C513.756 159.34 514.636 159.24 515.716 159.24C517.676 159.24 518.996 159.58 519.676 160.26C520.396 160.94 520.756 161.84 520.756 162.96C520.756 164.52 520.736 166.4 520.696 168.6C520.696 170.8 520.656 173.08 520.576 175.44C520.536 177.76 520.476 180.06 520.396 182.34ZM519.856 154.44C518.736 155.6 517.356 156.18 515.716 156.18C514.116 156.18 512.756 155.6 511.636 154.44C510.516 153.24 509.956 151.78 509.956 150.06C509.956 148.34 510.496 146.9 511.576 145.74C512.696 144.58 514.076 144 515.716 144C516.516 144 517.276 144.16 517.996 144.48C518.716 144.8 519.336 145.24 519.856 145.8C520.376 146.32 520.776 146.96 521.056 147.72C521.376 148.44 521.536 149.22 521.536 150.06C521.536 151.78 520.976 153.24 519.856 154.44ZM534.349 179.94C534.349 182.22 534.309 184.88 534.229 187.92C534.149 189.28 533.849 190.34 533.329 191.1C532.849 191.86 531.909 192.28 530.509 192.36C528.949 192.44 527.769 192.12 526.969 191.4C526.169 190.68 525.709 189.68 525.589 188.4C525.229 184.4 524.929 180.32 524.689 176.16C524.449 172 524.329 167.56 524.329 162.84C524.329 162.36 524.389 161.92 524.509 161.52C524.629 161.08 524.869 160.7 525.229 160.38C525.589 160.06 526.089 159.8 526.729 159.6C527.369 159.4 528.209 159.26 529.249 159.18C530.329 159.1 531.189 159.12 531.829 159.24C532.469 159.32 532.949 159.52 533.269 159.84C533.629 160.12 533.869 160.52 533.989 161.04C534.109 161.56 534.209 162.24 534.289 163.08C535.169 161.92 536.389 161.04 537.949 160.44C539.549 159.8 541.149 159.42 542.749 159.3C544.509 159.18 546.129 159.32 547.609 159.72C549.129 160.08 550.429 160.7 551.509 161.58C552.629 162.46 553.489 163.6 554.089 165C554.729 166.36 555.049 167.96 555.049 169.8C555.049 172.36 555.009 174.64 554.929 176.64C554.889 178.6 554.809 180.36 554.689 181.92C554.609 183.48 554.489 184.88 554.329 186.12C554.169 187.32 553.969 188.42 553.729 189.42C553.489 190.5 552.869 191.3 551.869 191.82C550.909 192.34 549.909 192.56 548.869 192.48C548.109 192.4 547.429 192.12 546.829 191.64C546.229 191.2 545.889 190.34 545.809 189.06C545.729 187.94 545.669 186.72 545.629 185.4C545.629 184.04 545.629 182.68 545.629 181.32C545.629 179.92 545.629 178.56 545.629 177.24C545.629 175.88 545.629 174.62 545.629 173.46C545.589 171.54 545.009 170.12 543.889 169.2C542.769 168.28 541.369 167.86 539.689 167.94C537.969 168.02 536.649 168.54 535.729 169.5C534.849 170.42 534.409 171.62 534.409 173.1C534.409 175.34 534.389 177.62 534.349 179.94ZM582.607 161.46C582.607 160.66 582.927 160.1 583.567 159.78C584.247 159.42 585.327 159.22 586.807 159.18C587.847 159.18 588.687 159.24 589.327 159.36C589.967 159.44 590.467 159.6 590.827 159.84C591.187 160.08 591.427 160.4 591.547 160.8C591.667 161.16 591.727 161.58 591.727 162.06C591.727 166.26 591.647 170.66 591.487 175.26C591.367 179.82 591.147 184.2 590.827 188.4C590.627 190.92 590.087 193.18 589.207 195.18C588.327 197.18 587.147 198.86 585.667 200.22C584.187 201.58 582.427 202.6 580.387 203.28C578.347 203.96 576.087 204.26 573.607 204.18C572.367 204.14 571.127 203.98 569.887 203.7C568.647 203.46 567.467 203.1 566.347 202.62C565.227 202.18 564.227 201.66 563.347 201.06C562.467 200.46 561.767 199.78 561.247 199.02C560.647 197.94 560.387 196.94 560.467 196.02C560.587 195.1 561.127 194.16 562.087 193.2C562.407 192.88 562.767 192.58 563.167 192.3C563.567 192.06 563.967 191.88 564.367 191.76C564.767 191.68 565.167 191.68 565.567 191.76C565.967 191.88 566.347 192.14 566.707 192.54C567.187 193.06 567.767 193.54 568.447 193.98C569.167 194.46 569.927 194.84 570.727 195.12C571.527 195.44 572.367 195.64 573.247 195.72C574.127 195.84 574.967 195.84 575.767 195.72C576.967 195.52 578.087 195.02 579.127 194.22C580.207 193.42 580.967 192.32 581.407 190.92C581.607 190.28 581.747 189.5 581.827 188.58C581.907 187.62 581.947 186.78 581.947 186.06C581.507 186.66 580.967 187.2 580.327 187.68C579.727 188.12 579.047 188.5 578.287 188.82C577.567 189.1 576.807 189.32 576.007 189.48C575.207 189.68 574.447 189.8 573.727 189.84C571.367 189.96 569.227 189.68 567.307 189C565.387 188.32 563.727 187.3 562.327 185.94C560.967 184.54 559.927 182.86 559.207 180.9C558.487 178.9 558.167 176.66 558.247 174.18C558.327 171.94 558.767 169.9 559.567 168.06C560.407 166.22 561.487 164.66 562.807 163.38C564.127 162.06 565.647 161.06 567.367 160.38C569.127 159.66 570.967 159.3 572.887 159.3C575.207 159.3 577.247 159.7 579.007 160.5C580.767 161.3 581.967 162.48 582.607 164.04V161.46ZM580.387 179.94C581.067 179.3 581.607 178.56 582.007 177.72C582.447 176.88 582.667 175.94 582.667 174.9C582.707 172.74 582.107 171.06 580.867 169.86C579.627 168.62 577.807 167.92 575.407 167.76C574.367 167.72 573.367 167.84 572.407 168.12C571.447 168.4 570.587 168.86 569.827 169.5C569.107 170.1 568.507 170.86 568.027 171.78C567.547 172.66 567.287 173.68 567.247 174.84C567.167 177.16 567.887 178.96 569.407 180.24C570.927 181.52 572.907 182.1 575.347 181.98C576.307 181.94 577.207 181.74 578.047 181.38C578.927 181.02 579.707 180.54 580.387 179.94ZM603.625 195.48C603.225 195.92 602.845 196.32 602.485 196.68C602.125 197.04 601.705 197.32 601.225 197.52C600.785 197.72 600.285 197.8 599.725 197.76C599.165 197.76 598.465 197.6 597.625 197.28C596.665 196.92 595.985 196.54 595.585 196.14C595.185 195.74 594.945 195.34 594.865 194.94C594.825 194.54 594.905 194.12 595.105 193.68C595.345 193.28 595.605 192.86 595.885 192.42C598.045 189.18 599.725 185.78 600.925 182.22C602.165 178.62 602.785 174.62 602.785 170.22C602.785 165.86 602.105 161.9 600.745 158.34C599.425 154.74 597.685 151.32 595.525 148.08C595.245 147.64 594.985 147.22 594.745 146.82C594.545 146.38 594.465 145.96 594.505 145.56C594.585 145.16 594.825 144.76 595.225 144.36C595.625 143.96 596.305 143.58 597.265 143.22C598.105 142.9 598.805 142.74 599.365 142.74C599.925 142.7 600.425 142.78 600.865 142.98C601.345 143.18 601.765 143.48 602.125 143.88C602.485 144.24 602.865 144.62 603.265 145.02C604.385 146.18 605.465 147.64 606.505 149.4C607.545 151.12 608.445 153.08 609.205 155.28C610.005 157.44 610.625 159.8 611.065 162.36C611.545 164.88 611.785 167.5 611.785 170.22C611.785 172.98 611.565 175.64 611.125 178.2C610.725 180.72 610.145 183.08 609.385 185.28C608.665 187.44 607.805 189.38 606.805 191.1C605.805 192.86 604.745 194.32 603.625 195.48Z" fill="white"/>
</svg>
