<svg width="681" height="833" viewBox="0 0 681 833" fill="none" xmlns="http://www.w3.org/2000/svg">
<rect width="461" height="23" transform="matrix(-1 0 0 1 618 551)" fill="#9E9E9E"/>
<rect width="13" height="65" transform="matrix(-1 0 0 1 511 563)" fill="#9E9E9E"/>
<rect width="13" height="65" transform="matrix(-1 0 0 1 279 568)" fill="#9E9E9E"/>
<circle cx="18.5" cy="18.5" r="18.5" transform="matrix(-1 0 0 1 628 544)" fill="#9E9E9E"/>
<path fill-rule="evenodd" clip-rule="evenodd" d="M154 0H105V833H154V67H250V126H263V67H562V126H575V67H645.008C648.397 71.2652 653.629 74 659.5 74C669.717 74 678 65.7173 678 55.5C678 45.2827 669.717 37 659.5 37C653.629 37 648.397 39.7348 645.008 44H154V0Z" fill="#B5BEC6"/>
<path d="M140.328 105.064C144.94 100.008 153.296 101.842 155.368 108.364L197.123 239.804C199.195 246.327 193.429 252.646 186.745 251.179L52.0368 221.62C45.3522 220.153 42.7622 212 47.3748 206.945L140.328 105.064Z" fill="#FFC700" stroke="black" stroke-width="11.5957"/>
<path d="M154.803 187.652L116.841 213.745C116.439 214.02 115.958 214.157 115.47 214.136C114.983 214.114 114.515 213.935 114.138 213.626C113.761 213.317 113.495 212.894 113.38 212.421C113.266 211.948 113.308 211.45 113.502 211.004L121.931 191.818L107.405 182.423C107.093 182.222 106.836 181.947 106.656 181.622C106.477 181.298 106.38 180.934 106.376 180.564C106.372 180.194 106.46 179.828 106.632 179.5C106.804 179.172 107.055 178.892 107.362 178.684L145.325 152.591C145.727 152.316 146.208 152.179 146.695 152.2C147.183 152.222 147.65 152.401 148.027 152.71C148.404 153.02 148.67 153.443 148.785 153.916C148.9 154.389 148.857 154.886 148.664 155.332L140.218 174.537L154.746 183.924C155.056 184.126 155.31 184.4 155.488 184.723C155.666 185.046 155.762 185.408 155.766 185.776C155.771 186.144 155.684 186.508 155.515 186.834C155.345 187.161 155.097 187.441 154.792 187.649L154.803 187.652Z" fill="black"/>
<circle cx="105.797" cy="200.968" r="3.86525" transform="rotate(12.3764 105.797 200.968)" fill="black"/>
<path d="M211.532 619.168L146.718 504.803C141.358 495.346 128.032 494.552 121.588 503.306L43.6561 609.169C41.9396 611.5 40.9346 614.279 40.7624 617.169L38.6033 653.411C38.1106 661.68 44.4152 668.784 52.6849 669.276L195.431 677.779C203.701 678.271 210.804 671.967 211.296 663.698L213.456 627.456C213.628 624.566 212.96 621.687 211.532 619.168Z" fill="#2D4BE3" stroke="#1030D7" stroke-width="10"/>
<path d="M139.323 508.994L204.137 623.359C204.756 624.451 205.045 625.698 204.971 626.951L202.812 663.192C202.598 666.775 199.52 669.507 195.937 669.294L53.1903 660.791C49.6068 660.578 46.8748 657.5 47.0883 653.916L49.2474 617.675C49.322 616.422 49.7575 615.218 50.5013 614.208L128.433 508.345C131.226 504.552 137 504.896 139.323 508.994Z" fill="#1030D7" stroke="white" stroke-width="7"/>
<path d="M91.4865 633.724C91.5 633.497 91.5958 633.328 91.7738 633.218C91.932 633.121 92.1249 633.079 92.3527 633.093C92.5805 633.106 92.7671 633.171 92.9127 633.285C93.0953 633.418 93.1798 633.597 93.1663 633.824C93.1213 634.579 93.0023 635.459 92.8091 636.463C92.6133 637.513 92.356 638.634 92.0372 639.828C93.2958 641.404 94.3681 642.908 95.2543 644.34C96.2272 645.914 96.9932 647.446 97.5521 648.934C97.6335 649.167 97.6309 649.371 97.5442 649.548C97.4394 649.708 97.2902 649.813 97.0968 649.862C96.9034 649.911 96.7141 649.893 96.5288 649.806C96.3254 649.703 96.1825 649.543 96.1002 649.325C95.4635 647.862 94.7663 646.456 94.0085 645.108C93.182 643.633 92.3443 642.348 91.4953 641.251C90.8666 642.851 90.1742 644.242 89.418 645.425C88.5552 646.799 87.5396 648.02 86.3713 649.087C85.9899 649.413 85.6063 649.458 85.2203 649.223C84.8532 648.989 84.8717 648.679 85.2756 648.294C87.1542 646.496 88.6287 644.287 89.699 641.667C90.7224 639.196 91.3183 636.548 91.4865 633.724ZM105.844 633.965C105.867 633.572 106.154 633.392 106.705 633.425C107.255 633.458 107.519 633.67 107.495 634.063L106.44 651.783C106.428 651.98 106.324 652.133 106.127 652.242C105.968 652.354 105.784 652.404 105.575 652.391C105.347 652.378 105.161 652.313 105.015 652.199C104.851 652.068 104.775 651.904 104.787 651.708L105.276 643.505L101.233 643.264L100.747 651.421C100.734 651.633 100.629 651.801 100.431 651.926C100.273 652.022 100.08 652.064 99.8523 652.05C99.6245 652.037 99.4379 651.973 99.2923 651.858C99.1296 651.712 99.0545 651.533 99.0671 651.321L100.121 633.624C100.145 633.231 100.432 633.051 100.982 633.084C101.551 633.118 101.824 633.331 101.801 633.724L101.299 642.153L105.342 642.394L105.844 633.965Z" fill="white"/>
<path d="M134.369 640.03L118.539 639.087L118.346 642.327C118.325 642.69 118.404 642.953 118.585 643.115C118.785 643.278 119.141 643.375 119.654 643.406L132.75 644.186C133.244 644.215 133.599 644.168 133.816 644.045C134.034 643.906 134.154 643.641 134.178 643.248L134.369 640.03ZM134.606 636.065C134.619 635.838 134.715 635.669 134.893 635.559C135.052 635.447 135.255 635.398 135.502 635.413C135.729 635.427 135.916 635.491 136.061 635.606C136.244 635.738 136.329 635.909 136.317 636.121L135.874 643.553C135.836 644.188 135.56 644.657 135.047 644.96C134.553 645.264 133.869 645.39 132.996 645.338L119.13 644.512C118.352 644.465 117.735 644.27 117.28 643.924C116.806 643.562 116.587 643.087 116.622 642.498L117.066 635.043C117.079 634.816 117.176 634.64 117.355 634.514C117.513 634.417 117.715 634.376 117.962 634.391C118.19 634.405 118.376 634.469 118.522 634.583C118.704 634.716 118.789 634.895 118.776 635.122L118.609 637.909L134.44 638.852L134.606 636.065ZM125.235 646.126C125.246 645.93 125.341 645.784 125.518 645.688C125.676 645.591 125.868 645.557 126.095 645.586C126.304 645.599 126.481 645.67 126.625 645.8C126.808 645.932 126.893 646.104 126.88 646.315L126.606 650.915L136.828 651.524C137.093 651.54 137.299 651.605 137.445 651.72C137.589 651.85 137.657 651.99 137.648 652.141C137.639 652.292 137.555 652.424 137.396 652.536C137.237 652.647 137.034 652.696 136.787 652.681L114.437 651.35C114.229 651.338 114.071 651.268 113.964 651.14C113.857 651.012 113.818 650.873 113.846 650.724C113.874 650.574 113.958 650.442 114.098 650.329C114.256 650.232 114.468 650.192 114.734 650.208L124.955 650.817L125.235 646.126Z" fill="white"/>
<path d="M165.313 640.509C165.807 640.538 166.052 640.742 166.048 641.121C166.044 641.515 165.804 641.698 165.33 641.67L146.026 640.52C145.495 640.488 145.241 640.276 145.264 639.883C145.287 639.505 145.564 639.332 146.095 639.364L165.313 640.509ZM161.048 637.276C161.542 637.305 161.787 637.517 161.782 637.911C161.778 638.305 161.548 638.488 161.092 638.461L150.643 637.838C150.112 637.807 149.858 637.595 149.881 637.202C149.905 636.809 150.182 636.629 150.713 636.66L161.048 637.276ZM155.523 642.745C158.332 642.913 160.53 643.423 162.117 644.275C163.576 645.044 164.275 645.943 164.214 646.97C164.152 648.012 163.35 648.836 161.81 649.442C160.151 650.101 157.908 650.346 155.08 650.178C152.233 650.008 150.025 649.498 148.457 648.646C147.036 647.864 146.357 646.952 146.419 645.91C146.481 644.883 147.262 644.073 148.764 643.48C150.442 642.822 152.694 642.577 155.523 642.745ZM155.452 643.924C153.118 643.785 151.29 643.926 149.97 644.348C148.766 644.731 148.142 645.285 148.099 646.01C148.056 646.735 148.609 647.367 149.758 647.905C151.018 648.496 152.815 648.861 155.15 649C157.466 649.138 159.284 648.988 160.605 648.551C161.829 648.154 162.463 647.593 162.506 646.868C162.549 646.143 161.986 645.518 160.817 644.994C159.556 644.418 157.768 644.062 155.452 643.924ZM155.733 652.65L165.982 653.261C166.248 653.276 166.454 653.342 166.599 653.456C166.744 653.586 166.812 653.727 166.803 653.878C166.794 654.029 166.719 654.161 166.579 654.274C166.439 654.387 166.246 654.436 165.999 654.421L143.734 653.095C143.203 653.063 142.958 652.852 143.001 652.46C143.042 652.084 143.338 651.912 143.889 651.944L154.081 652.552L154.245 649.81L155.896 649.908L155.733 652.65Z" fill="white"/>
<path fill-rule="evenodd" clip-rule="evenodd" d="M92.5807 624.569L110.787 607.622L93.6509 606.601L75.4444 623.549L92.5807 624.569ZM115.429 625.93L133.636 608.983L116.499 607.962L98.2928 624.91L115.429 625.93ZM179.332 611.705L161.126 628.652L143.99 627.632L162.196 610.684L179.332 611.705ZM138.277 627.291L156.484 610.344L139.348 609.323L121.141 626.271L138.277 627.291Z" fill="white"/>
<path d="M135.255 604.629L137.534 604.765L137.358 607.726L135.079 607.59L135.255 604.629Z" fill="#D9D9D9"/>
<rect x="120.573" y="603.755" width="2.28309" height="2.966" transform="rotate(3.40883 120.573 603.755)" fill="#D9D9D9"/>
<path d="M104.63 580.665C105.466 566.63 117.521 555.931 131.555 556.767V556.767C145.464 557.595 156.067 569.541 155.238 583.45L154.814 590.581C154.304 599.131 146.961 605.649 138.411 605.14L118.777 603.97C110.227 603.461 103.709 596.117 104.219 587.567L104.63 580.665Z" fill="#F6F6F6"/>
<path fill-rule="evenodd" clip-rule="evenodd" d="M108.595 568.456C108.47 568.411 108.341 568.372 108.209 568.34C106.597 567.953 105.03 568.728 104.708 570.071C104.438 571.198 105.13 572.366 106.312 572.941C106.927 571.361 107.694 569.86 108.595 568.456Z" fill="#F6F6F6"/>
<ellipse cx="116.23" cy="567.986" rx="1.82647" ry="1.69486" transform="rotate(3.40883 116.23 567.986)" fill="#1030D7"/>
<path d="M138.461 456.817C184 446.821 212.813 401.802 202.817 356.264C192.822 310.725 147.802 281.912 102.264 291.908C56.7251 301.903 27.9119 346.922 37.9076 392.461C47.9032 438 92.9225 466.813 138.461 456.817Z" fill="white" stroke="#CE0404" stroke-width="2"/>
<path d="M193.705 358.741C202.528 398.94 177.093 438.681 136.894 447.505C96.6953 456.328 56.9545 430.894 48.1309 390.694C39.3072 350.495 64.7421 310.755 104.941 301.931C145.14 293.107 184.881 318.542 193.705 358.741Z" fill="white" stroke="#CE0404" stroke-width="15"/>
<rect x="56.7686" y="338.958" width="18.1491" height="148.195" transform="rotate(-57.38 56.7686 338.958)" fill="#CE0404"/>
<path d="M100.801 405.382L88.7882 397.815L88.7879 397.815C88.1408 397.408 87.4202 397.132 86.6678 397.002C85.9156 396.871 85.1451 396.889 84.3998 397.053C82.8962 397.383 81.5762 398.289 80.7345 399.583C80.3175 400.224 80.0305 400.942 79.8919 401.695C79.7533 402.449 79.7662 403.222 79.9306 403.971C80.095 404.72 80.4073 405.428 80.8488 406.054C81.2902 406.681 81.8513 407.212 82.4985 407.62L106.353 422.641C106.354 422.641 106.354 422.641 106.355 422.642C107.002 423.049 107.722 423.325 108.474 423.456C109.227 423.586 109.997 423.569 110.743 423.405C111.488 423.241 112.196 422.935 112.824 422.501C113.453 422.067 113.991 421.515 114.408 420.874C114.408 420.874 114.409 420.873 114.409 420.873L129.78 397.242C130.622 395.946 130.916 394.367 130.584 392.853C130.251 391.339 129.323 390.028 128.016 389.205C126.709 388.382 125.131 388.112 123.627 388.442C122.124 388.772 120.804 389.679 119.962 390.973L119.962 390.973L112.223 402.875L103.19 361.725C102.21 357.259 103.068 352.573 105.589 348.697C108.111 344.82 112.09 342.073 116.656 341.071C121.222 340.069 125.986 340.897 129.899 343.361C133.812 345.825 136.554 349.72 137.534 354.187L145.312 389.62C145.644 391.134 146.572 392.444 147.879 393.267C149.185 394.09 150.763 394.36 152.266 394.03C153.769 393.7 155.088 392.794 155.93 391.5C156.772 390.205 157.066 388.627 156.733 387.113L148.956 351.68C147.311 344.186 142.714 337.67 136.187 333.56C129.661 329.451 121.742 328.083 114.17 329.745C106.598 331.407 99.9794 335.966 95.7748 342.43C91.5693 348.896 90.1238 356.739 91.7687 364.232L100.801 405.382Z" fill="black" stroke="black" stroke-width="5"/>
<rect x="204.5" y="630.5" width="373.557" height="158.723" rx="10.6359" fill="#0093F3" stroke="#0093F3" stroke-width="5"/>
<mask id="path-23-inside-1_666_313" fill="white">
<rect x="207" y="633" width="368.557" height="153.723" rx="8.13592"/>
</mask>
<rect x="207" y="633" width="368.557" height="153.723" rx="8.13592" fill="#0093F3" stroke="white" stroke-width="30" mask="url(#path-23-inside-1_666_313)"/>
<mask id="path-24-outside-2_666_313" maskUnits="userSpaceOnUse" x="195" y="111" width="486" height="121" fill="black">
<rect fill="white" x="195" y="111" width="486" height="121"/>
<path fill-rule="evenodd" clip-rule="evenodd" d="M614.679 126.038C614.679 126.017 614.662 126 614.641 126H225C216.716 126 210 132.716 210 141V202C210 210.284 216.716 217 225 217H609.71C612.936 217 616.076 215.96 618.665 214.034L659.726 183.478C667.786 177.48 667.786 165.408 659.726 159.41L614.871 126.031C614.847 126.013 614.813 126.013 614.789 126.031L614.739 126.068C614.714 126.087 614.679 126.069 614.679 126.038V126.038Z"/>
</mask>
<path fill-rule="evenodd" clip-rule="evenodd" d="M614.679 126.038C614.679 126.017 614.662 126 614.641 126H225C216.716 126 210 132.716 210 141V202C210 210.284 216.716 217 225 217H609.71C612.936 217 616.076 215.96 618.665 214.034L659.726 183.478C667.786 177.48 667.786 165.408 659.726 159.41L614.871 126.031C614.847 126.013 614.813 126.013 614.789 126.031L614.739 126.068C614.714 126.087 614.679 126.069 614.679 126.038V126.038Z" fill="#0093F3"/>
<path d="M614.739 126.068L623.694 138.102L614.739 126.068ZM614.871 126.031L605.916 138.064L614.871 126.031ZM614.789 126.031L605.834 113.997L614.789 126.031ZM659.726 183.478L650.771 171.444L659.726 183.478ZM618.665 214.034L627.62 226.067L618.665 214.034ZM225 141H614.641V111H225V141ZM225 202V141H195V202H225ZM609.71 202H225V232H609.71V202ZM650.771 171.444L609.71 202L627.62 226.067L668.681 195.511L650.771 171.444ZM605.916 138.064L650.771 171.444L668.681 147.377L623.826 113.997L605.916 138.064ZM623.694 138.102L623.744 138.064L605.834 113.997L605.784 114.034L623.694 138.102ZM605.784 114.034C615.654 106.689 629.679 113.734 629.679 126.038H599.679C599.679 138.404 613.774 145.484 623.694 138.102L605.784 114.034ZM623.826 113.997C618.487 110.024 611.173 110.024 605.834 113.997L623.744 138.064C618.453 142.001 611.207 142.001 605.916 138.064L623.826 113.997ZM668.681 195.511C684.8 183.515 684.801 159.373 668.681 147.377L650.771 171.444C650.79 171.459 650.8 171.468 650.803 171.471C650.806 171.473 650.804 171.472 650.8 171.467C650.796 171.462 650.791 171.455 650.786 171.447C650.781 171.439 650.777 171.432 650.773 171.425C650.767 171.412 650.766 171.407 650.767 171.412C650.768 171.414 650.769 171.418 650.769 171.424C650.77 171.43 650.771 171.437 650.771 171.444C650.771 171.451 650.77 171.458 650.769 171.464C650.769 171.47 650.768 171.474 650.767 171.476C650.766 171.481 650.767 171.476 650.773 171.463C650.777 171.456 650.781 171.449 650.786 171.441C650.791 171.433 650.796 171.426 650.8 171.421C650.804 171.416 650.806 171.415 650.803 171.417C650.8 171.42 650.79 171.429 650.771 171.444L668.681 195.511ZM609.71 232C616.162 232 622.443 229.919 627.62 226.067L609.71 202L609.71 202V232ZM195 202C195 218.569 208.431 232 225 232V202L225 202H195ZM614.641 141C606.378 141 599.679 134.302 599.679 126.038H629.679C629.679 117.732 622.945 111 614.641 111V141ZM225 111C208.431 111 195 124.431 195 141H225L225 141V111Z" fill="white" mask="url(#path-24-outside-2_666_313)"/>
<path d="M272.944 192.6C272.384 194.16 271.464 195.54 270.184 196.74C268.944 197.94 267.324 198.9 265.324 199.62C263.364 200.38 261.024 200.82 258.304 200.94C255.664 201.06 253.344 200.84 251.344 200.28C249.384 199.72 247.764 198.9 246.484 197.82C245.204 196.78 244.244 195.52 243.604 194.04C242.964 192.56 242.644 190.94 242.644 189.18C242.644 187.54 242.944 185.98 243.544 184.5C244.144 183.02 245.044 181.7 246.244 180.54C247.484 179.34 249.044 178.36 250.924 177.6C252.844 176.84 255.104 176.38 257.704 176.22C262.784 175.94 266.664 176.82 269.344 178.86C272.024 180.86 273.464 183.76 273.664 187.56C273.744 189.36 273.504 191.04 272.944 192.6ZM236.764 168.3C236.764 169.06 237.164 169.4 237.964 169.32C238.684 169.28 239.544 169.24 240.544 169.2C241.544 169.12 242.584 169.04 243.664 168.96C244.784 168.88 245.904 168.8 247.024 168.72C248.184 168.64 249.244 168.56 250.204 168.48C251.124 168.4 251.784 168.58 252.184 169.02C252.624 169.42 252.884 170.2 252.964 171.36C253.004 172.08 252.964 172.66 252.844 173.1C252.764 173.5 252.624 173.82 252.424 174.06C252.224 174.3 251.964 174.48 251.644 174.6C251.364 174.68 251.064 174.76 250.744 174.84C248.104 175.44 245.304 175.94 242.344 176.34C239.424 176.74 236.424 177 233.344 177.12C230.544 177.24 228.984 176.3 228.664 174.3C228.544 173.62 228.444 172.8 228.364 171.84C228.284 170.88 228.204 169.88 228.124 168.84C228.044 167.76 227.984 166.7 227.944 165.66C227.904 164.58 227.884 163.6 227.884 162.72C227.884 161.48 228.504 160.74 229.744 160.5C230.624 160.34 231.644 160.16 232.804 159.96C233.964 159.76 235.124 159.58 236.284 159.42C237.484 159.22 238.644 159.04 239.764 158.88C240.924 158.72 241.964 158.58 242.884 158.46L242.644 153.54C241.844 153.58 240.964 153.62 240.004 153.66C239.044 153.66 238.044 153.66 237.004 153.66C236.004 153.66 234.984 153.66 233.944 153.66C232.904 153.66 231.944 153.66 231.064 153.66C230.504 153.66 230.024 153.62 229.624 153.54C229.224 153.42 228.884 153.24 228.604 153C228.364 152.72 228.184 152.32 228.064 151.8C227.944 151.28 227.884 150.58 227.884 149.7C227.884 148.78 227.944 148.06 228.064 147.54C228.184 146.98 228.344 146.56 228.544 146.28C228.784 145.96 229.084 145.76 229.444 145.68C229.804 145.56 230.224 145.48 230.704 145.44C232.024 145.4 233.544 145.36 235.264 145.32C237.024 145.24 238.824 145.18 240.664 145.14C242.504 145.1 244.284 145.06 246.004 145.02C247.764 144.98 249.284 144.94 250.564 144.9C251.484 144.9 251.944 145.4 251.944 146.4C251.984 147.96 252.004 149.36 252.004 150.6C252.044 151.8 252.064 152.98 252.064 154.14C252.104 155.3 252.124 156.48 252.124 157.68C252.124 158.88 252.124 160.26 252.124 161.82C252.124 162.82 251.904 163.58 251.464 164.1C251.064 164.58 250.364 164.9 249.364 165.06C248.564 165.18 247.584 165.32 246.424 165.48C245.304 165.6 244.144 165.74 242.944 165.9C241.784 166.02 240.644 166.14 239.524 166.26C238.404 166.38 237.484 166.48 236.764 166.56V168.3ZM265.984 163.92C265.424 163.92 264.844 163.92 264.244 163.92C264.204 165.2 264.164 166.5 264.124 167.82C264.084 169.1 264.024 170.44 263.944 171.84C263.864 173.04 263.444 173.86 262.684 174.3C261.924 174.74 260.884 174.96 259.564 174.96C258.324 174.96 257.344 174.74 256.624 174.3C255.944 173.86 255.564 172.98 255.484 171.66C255.404 170.62 255.344 169.18 255.304 167.34C255.264 165.46 255.224 163.46 255.184 161.34C255.184 159.22 255.164 157.1 255.124 154.98C255.124 152.82 255.124 150.92 255.124 149.28C255.124 148.2 255.424 147.34 256.024 146.7C256.624 146.06 257.804 145.72 259.564 145.68C261.324 145.64 262.544 145.92 263.224 146.52C263.904 147.12 264.244 147.92 264.244 148.92C264.244 149.96 264.244 151.06 264.244 152.22C264.244 153.34 264.264 154.52 264.304 155.76C264.904 155.72 265.484 155.72 266.044 155.76C266.604 155.76 267.144 155.76 267.664 155.76C267.664 154.52 267.664 153.32 267.664 152.16C267.664 150.96 267.684 149.9 267.724 148.98C267.724 147.94 268.024 147.12 268.624 146.52C269.224 145.88 270.384 145.56 272.104 145.56C273.984 145.56 275.264 145.9 275.944 146.58C276.624 147.26 276.944 148.06 276.904 148.98C276.824 150.74 276.744 152.8 276.664 155.16C276.624 157.52 276.544 159.9 276.424 162.3C276.344 164.7 276.244 166.98 276.124 169.14C276.044 171.3 275.944 173.04 275.824 174.36C275.584 176.64 274.104 177.72 271.384 177.6C270.184 177.52 269.264 177.22 268.624 176.7C268.024 176.18 267.724 175.26 267.724 173.94C267.724 172.78 267.704 171.32 267.664 169.56C267.664 167.8 267.664 165.9 267.664 163.86C267.104 163.9 266.544 163.92 265.984 163.92ZM258.184 193.98C260.184 193.9 261.684 193.34 262.684 192.3C263.724 191.3 264.184 189.84 264.064 187.92C263.944 186.16 263.344 184.92 262.264 184.2C261.184 183.44 259.804 183.1 258.124 183.18C256.284 183.26 254.824 183.82 253.744 184.86C252.664 185.86 252.164 187.18 252.244 188.82C252.324 190.5 252.884 191.8 253.924 192.72C254.964 193.64 256.384 194.06 258.184 193.98ZM322.048 196.44C320.808 197.72 319.188 198.76 317.188 199.56C315.228 200.36 312.888 200.82 310.168 200.94C307.528 201.06 305.208 200.8 303.208 200.16C301.248 199.56 299.628 198.68 298.348 197.52C297.068 196.4 296.108 195.06 295.468 193.5C294.828 191.98 294.508 190.34 294.508 188.58C294.508 186.94 294.808 185.34 295.408 183.78C296.008 182.22 296.908 180.82 298.108 179.58C299.348 178.34 300.908 177.32 302.788 176.52C304.708 175.68 306.968 175.18 309.568 175.02C312.088 174.86 314.328 175.04 316.288 175.56C318.248 176.08 319.888 176.86 321.208 177.9C322.568 178.94 323.608 180.24 324.328 181.8C325.048 183.32 325.448 185.04 325.528 186.96C325.608 188.76 325.368 190.46 324.808 192.06C324.248 193.7 323.328 195.16 322.048 196.44ZM310.888 150.72C310.888 152.2 310.868 153.78 310.828 155.46C310.828 157.1 310.788 158.78 310.708 160.5C310.668 162.18 310.588 163.84 310.468 165.48C310.388 167.08 310.268 168.6 310.108 170.04C309.948 171.44 309.548 172.5 308.908 173.22C308.268 173.9 307.048 174.24 305.248 174.24C303.568 174.24 302.448 173.86 301.888 173.1C301.368 172.34 301.068 171.24 300.988 169.8C300.948 169.28 300.908 168.74 300.868 168.18C300.868 167.62 300.848 167.04 300.808 166.44C299.528 166.56 298.188 166.68 296.788 166.8C295.428 166.88 294.048 166.98 292.648 167.1C291.288 167.18 289.928 167.26 288.568 167.34C287.248 167.42 285.988 167.48 284.788 167.52C283.828 167.56 283.068 167.34 282.508 166.86C281.948 166.38 281.628 165.34 281.548 163.74C281.468 162.42 281.628 161.42 282.028 160.74C282.428 160.02 283.208 159.62 284.368 159.54C286.968 159.34 289.688 159.14 292.528 158.94C295.408 158.74 298.128 158.56 300.688 158.4C300.688 157.6 300.688 156.82 300.688 156.06C300.688 155.3 300.708 154.58 300.748 153.9C297.868 153.9 294.968 153.9 292.048 153.9C289.128 153.86 286.248 153.8 283.408 153.72C282.728 153.68 282.068 153.36 281.428 152.76C280.788 152.16 280.488 151.06 280.528 149.46C280.568 148.14 280.808 147.18 281.248 146.58C281.688 145.94 282.488 145.58 283.648 145.5C287.648 145.3 291.408 145.16 294.928 145.08C298.448 144.96 302.088 144.9 305.848 144.9C306.728 144.9 307.488 144.92 308.128 144.96C308.768 144.96 309.288 145.06 309.688 145.26C310.088 145.42 310.388 145.68 310.588 146.04C310.788 146.4 310.888 146.92 310.888 147.6V150.72ZM316.588 160.86C316.548 157.02 316.568 153.1 316.648 149.1C316.648 147.58 317.268 146.58 318.508 146.1C319.468 145.74 320.568 145.58 321.808 145.62C323.048 145.62 324.128 145.8 325.048 146.16C325.688 146.4 326.108 146.74 326.308 147.18C326.548 147.62 326.668 148.24 326.668 149.04C326.708 150.92 326.728 152.84 326.728 154.8C326.728 156.76 326.708 158.72 326.668 160.68C326.668 162.6 326.628 164.48 326.548 166.32C326.508 168.16 326.428 169.88 326.308 171.48C326.228 172.36 325.988 173.06 325.588 173.58C325.228 174.06 324.648 174.46 323.848 174.78C323.608 174.86 323.268 174.94 322.828 175.02C322.388 175.06 321.908 175.1 321.388 175.14C320.868 175.14 320.368 175.12 319.888 175.08C319.408 175 319.028 174.9 318.748 174.78C318.228 174.54 317.768 174.18 317.368 173.7C317.008 173.18 316.828 172.52 316.828 171.72C316.748 168.32 316.668 164.7 316.588 160.86ZM310.048 193.74C312.048 193.66 313.548 193.04 314.548 191.88C315.588 190.76 316.048 189.24 315.928 187.32C315.808 185.56 315.208 184.26 314.128 183.42C313.048 182.54 311.668 182.14 309.988 182.22C308.148 182.3 306.688 182.92 305.608 184.08C304.528 185.2 304.028 186.58 304.108 188.22C304.188 189.9 304.748 191.26 305.788 192.3C306.828 193.34 308.248 193.82 310.048 193.74ZM366.628 194.94C366.588 195.34 366.368 195.74 365.968 196.14C365.568 196.54 364.888 196.92 363.928 197.28C363.088 197.6 362.388 197.76 361.828 197.76C361.268 197.8 360.748 197.72 360.268 197.52C359.828 197.32 359.428 197.04 359.068 196.68C358.708 196.32 358.328 195.92 357.928 195.48C356.768 194.32 355.688 192.86 354.688 191.1C353.728 189.38 352.868 187.44 352.108 185.28C351.388 183.08 350.808 180.72 350.368 178.2C349.968 175.64 349.768 172.98 349.768 170.22C349.768 167.5 349.988 164.88 350.428 162.36C350.908 159.8 351.528 157.44 352.288 155.28C353.088 153.08 353.988 151.12 354.988 149.4C356.028 147.64 357.128 146.18 358.288 145.02C358.688 144.62 359.068 144.24 359.428 143.88C359.788 143.48 360.188 143.18 360.628 142.98C361.108 142.78 361.628 142.7 362.188 142.74C362.748 142.74 363.448 142.9 364.288 143.22C365.248 143.58 365.928 143.96 366.328 144.36C366.728 144.76 366.948 145.16 366.988 145.56C367.068 145.96 366.988 146.38 366.748 146.82C366.548 147.22 366.308 147.64 366.028 148.08C363.868 151.32 362.108 154.74 360.748 158.34C359.428 161.9 358.768 165.86 358.768 170.22C358.768 174.62 359.368 178.62 360.568 182.22C361.808 185.78 363.508 189.18 365.668 192.42C365.948 192.86 366.188 193.28 366.388 193.68C366.628 194.12 366.708 194.54 366.628 194.94ZM403.799 170.1C402.679 172.22 401.099 173.84 399.059 174.96C399.419 175.88 399.819 176.84 400.259 177.84C400.699 178.84 401.119 179.86 401.519 180.9C401.959 181.9 402.359 182.9 402.719 183.9C403.119 184.86 403.439 185.76 403.679 186.6C403.919 187.48 403.819 188.44 403.379 189.48C402.939 190.56 402.039 191.32 400.679 191.76C399.519 192.12 398.519 192.12 397.679 191.76C396.839 191.4 396.039 190.58 395.279 189.3C395.079 188.9 394.759 188.22 394.319 187.26C393.879 186.26 393.399 185.16 392.879 183.96C392.359 182.76 391.839 181.56 391.319 180.36C390.839 179.12 390.419 178.04 390.059 177.12C388.259 177.32 386.559 177.44 384.959 177.48C383.359 177.48 381.659 177.38 379.859 177.18C379.859 178.06 379.839 178.98 379.799 179.94C379.799 180.86 379.779 181.78 379.739 182.7C379.699 183.58 379.639 184.4 379.559 185.16C379.519 185.92 379.479 186.56 379.439 187.08C379.239 188.84 378.799 190.16 378.119 191.04C377.479 191.92 376.319 192.36 374.639 192.36C373.239 192.36 372.199 192 371.519 191.28C370.839 190.6 370.459 189.36 370.379 187.56C370.299 184.72 370.239 181.76 370.199 178.68C370.159 175.56 370.139 172.42 370.139 169.26C370.139 166.1 370.159 162.98 370.199 159.9C370.239 156.78 370.299 153.78 370.379 150.9C370.419 150.06 370.579 149.46 370.859 149.1C371.139 148.74 371.619 148.52 372.299 148.44C373.339 148.32 374.539 148.22 375.899 148.14C377.299 148.06 378.739 148 380.219 147.96C381.699 147.92 383.179 147.9 384.659 147.9C386.139 147.86 387.519 147.84 388.799 147.84C391.319 147.84 393.579 148.12 395.579 148.68C397.619 149.24 399.339 150.1 400.739 151.26C402.179 152.38 403.299 153.82 404.099 155.58C404.899 157.34 405.319 159.42 405.359 161.82C405.439 165.22 404.919 167.98 403.799 170.1ZM380.159 162.96C380.119 165.08 380.079 167.1 380.039 169.02C380.639 169.06 381.339 169.1 382.139 169.14C382.939 169.14 383.739 169.14 384.539 169.14C385.379 169.14 386.179 169.14 386.939 169.14C387.699 169.1 388.359 169.04 388.919 168.96C390.999 168.72 392.639 168.18 393.839 167.34C395.039 166.5 395.679 165.02 395.759 162.9C395.799 161.7 395.659 160.72 395.339 159.96C395.019 159.16 394.559 158.52 393.959 158.04C393.359 157.56 392.619 157.22 391.739 157.02C390.899 156.82 389.939 156.7 388.859 156.66C387.619 156.62 386.219 156.62 384.659 156.66C383.099 156.7 381.659 156.8 380.339 156.96C380.299 158.84 380.239 160.84 380.159 162.96ZM434.657 191.76C434.097 191.76 433.737 191.54 433.577 191.1C433.377 190.42 433.177 189.76 432.977 189.12C432.777 188.48 432.537 187.72 432.257 186.84C431.777 187.6 431.157 188.3 430.397 188.94C429.677 189.58 428.857 190.14 427.937 190.62C427.057 191.1 426.097 191.48 425.057 191.76C424.057 192.08 423.077 192.26 422.117 192.3C419.997 192.42 417.957 192.12 415.997 191.4C414.037 190.68 412.317 189.6 410.837 188.16C409.397 186.72 408.237 184.98 407.357 182.94C406.517 180.86 406.117 178.54 406.157 175.98C406.197 173.22 406.677 170.78 407.597 168.66C408.517 166.54 409.737 164.76 411.257 163.32C412.777 161.88 414.517 160.82 416.477 160.14C418.437 159.42 420.477 159.12 422.597 159.24C424.877 159.36 426.777 159.84 428.297 160.68C429.857 161.52 430.917 162.64 431.477 164.04L431.777 161.22C431.897 160.22 432.237 159.66 432.797 159.54C434.077 159.34 435.237 159.24 436.277 159.24C437.317 159.24 438.457 159.34 439.697 159.54C440.617 159.74 441.097 160.54 441.137 161.94C441.177 163.34 441.197 164.8 441.197 166.32C441.237 167.8 441.257 169.28 441.257 170.76C441.257 174.48 441.217 178.04 441.137 181.44C441.057 184.8 440.957 187.56 440.837 189.72C440.797 190.4 440.577 190.9 440.177 191.22C439.817 191.58 439.337 191.76 438.737 191.76H434.657ZM427.637 182.94C428.517 182.5 429.257 181.94 429.857 181.26C430.497 180.54 430.997 179.72 431.357 178.8C431.717 177.84 431.897 176.78 431.897 175.62C431.857 173.34 431.157 171.5 429.797 170.1C428.477 168.7 426.617 167.92 424.217 167.76C422.937 167.68 421.757 167.84 420.677 168.24C419.597 168.6 418.637 169.14 417.797 169.86C416.997 170.58 416.357 171.46 415.877 172.5C415.437 173.5 415.217 174.62 415.217 175.86C415.217 177.3 415.457 178.58 415.937 179.7C416.417 180.78 417.097 181.66 417.977 182.34C418.857 183.02 419.877 183.5 421.037 183.78C422.237 184.06 423.537 184.08 424.937 183.84C425.897 183.68 426.797 183.38 427.637 182.94ZM454.857 179.94C454.857 182.22 454.817 184.88 454.737 187.92C454.657 189.28 454.357 190.34 453.837 191.1C453.357 191.86 452.417 192.28 451.017 192.36C449.457 192.44 448.277 192.12 447.477 191.4C446.677 190.68 446.217 189.68 446.097 188.4C445.737 184.4 445.437 180.32 445.197 176.16C444.957 172 444.837 167.56 444.837 162.84C444.837 162.36 444.897 161.92 445.017 161.52C445.137 161.08 445.377 160.7 445.737 160.38C446.097 160.06 446.597 159.8 447.237 159.6C447.877 159.4 448.717 159.26 449.757 159.18C450.837 159.1 451.697 159.12 452.337 159.24C452.977 159.32 453.457 159.52 453.777 159.84C454.137 160.12 454.377 160.52 454.497 161.04C454.617 161.56 454.717 162.24 454.797 163.08C455.677 161.92 456.897 161.04 458.457 160.44C460.057 159.8 461.657 159.42 463.257 159.3C465.017 159.18 466.637 159.32 468.117 159.72C469.637 160.08 470.937 160.7 472.017 161.58C473.137 162.46 473.997 163.6 474.597 165C475.237 166.36 475.557 167.96 475.557 169.8C475.557 172.36 475.517 174.64 475.437 176.64C475.397 178.6 475.317 180.36 475.197 181.92C475.117 183.48 474.997 184.88 474.837 186.12C474.677 187.32 474.477 188.42 474.237 189.42C473.997 190.5 473.377 191.3 472.377 191.82C471.417 192.34 470.417 192.56 469.377 192.48C468.617 192.4 467.937 192.12 467.337 191.64C466.737 191.2 466.397 190.34 466.317 189.06C466.237 187.94 466.177 186.72 466.137 185.4C466.137 184.04 466.137 182.68 466.137 181.32C466.137 179.92 466.137 178.56 466.137 177.24C466.137 175.88 466.137 174.62 466.137 173.46C466.097 171.54 465.517 170.12 464.397 169.2C463.277 168.28 461.877 167.86 460.197 167.94C458.477 168.02 457.157 168.54 456.237 169.5C455.357 170.42 454.917 171.62 454.917 173.1C454.917 175.34 454.897 177.62 454.857 179.94ZM488.954 187.92C488.914 189.36 488.654 190.44 488.174 191.16C487.694 191.88 486.754 192.28 485.354 192.36C483.794 192.44 482.634 192.12 481.874 191.4C481.114 190.68 480.674 189.68 480.554 188.4C480.354 186.24 480.174 183.56 480.014 180.36C479.894 177.16 479.774 173.78 479.654 170.22C479.534 166.66 479.434 163.08 479.354 159.48C479.314 155.88 479.294 152.64 479.294 149.76C479.294 149.28 479.354 148.82 479.474 148.38C479.594 147.9 479.834 147.5 480.194 147.18C480.554 146.86 481.054 146.6 481.694 146.4C482.334 146.2 483.174 146.1 484.214 146.1C485.174 146.1 485.954 146.2 486.554 146.4C487.154 146.6 487.634 146.86 487.994 147.18C488.354 147.5 488.594 147.9 488.714 148.38C488.874 148.82 488.954 149.3 488.954 149.82C488.994 151.26 489.014 152.88 489.014 154.68C489.054 156.48 489.074 158.38 489.074 160.38C489.114 162.38 489.134 164.4 489.134 166.44C489.134 168.48 489.134 170.46 489.134 172.38C491.574 170.38 494.234 168.3 497.114 166.14C500.034 163.94 502.874 161.88 505.634 159.96C506.594 159.28 507.514 158.94 508.394 158.94C509.274 158.9 510.134 159.36 510.974 160.32C512.134 161.72 512.734 162.96 512.774 164.04C512.854 165.12 512.174 166.22 510.734 167.34C509.494 168.3 508.254 169.26 507.014 170.22C505.774 171.18 504.514 172.12 503.234 173.04C503.994 174.24 504.794 175.56 505.634 177C506.474 178.4 507.254 179.76 507.974 181.08C508.734 182.36 509.394 183.52 509.954 184.56C510.554 185.6 510.954 186.38 511.154 186.9C511.594 188.02 511.714 188.98 511.514 189.78C511.314 190.62 510.514 191.32 509.114 191.88C507.994 192.36 506.974 192.52 506.054 192.36C505.174 192.2 504.334 191.54 503.534 190.38C503.174 189.86 502.694 189.08 502.094 188.04C501.494 186.96 500.854 185.82 500.174 184.62C499.494 183.42 498.814 182.24 498.134 181.08C497.494 179.88 496.954 178.88 496.514 178.08C495.074 178.96 493.734 179.8 492.494 180.6C491.254 181.4 490.094 182.14 489.014 182.82L488.954 187.92ZM525.396 182.34C525.316 184.58 525.256 186.54 525.216 188.22C525.136 189.62 524.836 190.64 524.316 191.28C523.836 191.92 522.916 192.28 521.556 192.36C520.036 192.44 518.876 192.1 518.076 191.34C517.276 190.62 516.796 189.64 516.636 188.4C516.596 187.64 516.536 186.62 516.456 185.34C516.416 184.02 516.356 182.56 516.276 180.96C516.196 179.36 516.116 177.7 516.036 175.98C515.996 174.22 515.936 172.52 515.856 170.88C515.816 169.24 515.776 167.72 515.736 166.32C515.696 164.92 515.676 163.78 515.676 162.9C515.676 162.42 515.736 161.96 515.856 161.52C515.976 161.04 516.216 160.64 516.576 160.32C516.936 160 517.436 159.74 518.076 159.54C518.756 159.34 519.636 159.24 520.716 159.24C522.676 159.24 523.996 159.58 524.676 160.26C525.396 160.94 525.756 161.84 525.756 162.96C525.756 164.52 525.736 166.4 525.696 168.6C525.696 170.8 525.656 173.08 525.576 175.44C525.536 177.76 525.476 180.06 525.396 182.34ZM524.856 154.44C523.736 155.6 522.356 156.18 520.716 156.18C519.116 156.18 517.756 155.6 516.636 154.44C515.516 153.24 514.956 151.78 514.956 150.06C514.956 148.34 515.496 146.9 516.576 145.74C517.696 144.58 519.076 144 520.716 144C521.516 144 522.276 144.16 522.996 144.48C523.716 144.8 524.336 145.24 524.856 145.8C525.376 146.32 525.776 146.96 526.056 147.72C526.376 148.44 526.536 149.22 526.536 150.06C526.536 151.78 525.976 153.24 524.856 154.44ZM539.349 179.94C539.349 182.22 539.309 184.88 539.229 187.92C539.149 189.28 538.849 190.34 538.329 191.1C537.849 191.86 536.909 192.28 535.509 192.36C533.949 192.44 532.769 192.12 531.969 191.4C531.169 190.68 530.709 189.68 530.589 188.4C530.229 184.4 529.929 180.32 529.689 176.16C529.449 172 529.329 167.56 529.329 162.84C529.329 162.36 529.389 161.92 529.509 161.52C529.629 161.08 529.869 160.7 530.229 160.38C530.589 160.06 531.089 159.8 531.729 159.6C532.369 159.4 533.209 159.26 534.249 159.18C535.329 159.1 536.189 159.12 536.829 159.24C537.469 159.32 537.949 159.52 538.269 159.84C538.629 160.12 538.869 160.52 538.989 161.04C539.109 161.56 539.209 162.24 539.289 163.08C540.169 161.92 541.389 161.04 542.949 160.44C544.549 159.8 546.149 159.42 547.749 159.3C549.509 159.18 551.129 159.32 552.609 159.72C554.129 160.08 555.429 160.7 556.509 161.58C557.629 162.46 558.489 163.6 559.089 165C559.729 166.36 560.049 167.96 560.049 169.8C560.049 172.36 560.009 174.64 559.929 176.64C559.889 178.6 559.809 180.36 559.689 181.92C559.609 183.48 559.489 184.88 559.329 186.12C559.169 187.32 558.969 188.42 558.729 189.42C558.489 190.5 557.869 191.3 556.869 191.82C555.909 192.34 554.909 192.56 553.869 192.48C553.109 192.4 552.429 192.12 551.829 191.64C551.229 191.2 550.889 190.34 550.809 189.06C550.729 187.94 550.669 186.72 550.629 185.4C550.629 184.04 550.629 182.68 550.629 181.32C550.629 179.92 550.629 178.56 550.629 177.24C550.629 175.88 550.629 174.62 550.629 173.46C550.589 171.54 550.009 170.12 548.889 169.2C547.769 168.28 546.369 167.86 544.689 167.94C542.969 168.02 541.649 168.54 540.729 169.5C539.849 170.42 539.409 171.62 539.409 173.1C539.409 175.34 539.389 177.62 539.349 179.94ZM587.607 161.46C587.607 160.66 587.927 160.1 588.567 159.78C589.247 159.42 590.327 159.22 591.807 159.18C592.847 159.18 593.687 159.24 594.327 159.36C594.967 159.44 595.467 159.6 595.827 159.84C596.187 160.08 596.427 160.4 596.547 160.8C596.667 161.16 596.727 161.58 596.727 162.06C596.727 166.26 596.647 170.66 596.487 175.26C596.367 179.82 596.147 184.2 595.827 188.4C595.627 190.92 595.087 193.18 594.207 195.18C593.327 197.18 592.147 198.86 590.667 200.22C589.187 201.58 587.427 202.6 585.387 203.28C583.347 203.96 581.087 204.26 578.607 204.18C577.367 204.14 576.127 203.98 574.887 203.7C573.647 203.46 572.467 203.1 571.347 202.62C570.227 202.18 569.227 201.66 568.347 201.06C567.467 200.46 566.767 199.78 566.247 199.02C565.647 197.94 565.387 196.94 565.467 196.02C565.587 195.1 566.127 194.16 567.087 193.2C567.407 192.88 567.767 192.58 568.167 192.3C568.567 192.06 568.967 191.88 569.367 191.76C569.767 191.68 570.167 191.68 570.567 191.76C570.967 191.88 571.347 192.14 571.707 192.54C572.187 193.06 572.767 193.54 573.447 193.98C574.167 194.46 574.927 194.84 575.727 195.12C576.527 195.44 577.367 195.64 578.247 195.72C579.127 195.84 579.967 195.84 580.767 195.72C581.967 195.52 583.087 195.02 584.127 194.22C585.207 193.42 585.967 192.32 586.407 190.92C586.607 190.28 586.747 189.5 586.827 188.58C586.907 187.62 586.947 186.78 586.947 186.06C586.507 186.66 585.967 187.2 585.327 187.68C584.727 188.12 584.047 188.5 583.287 188.82C582.567 189.1 581.807 189.32 581.007 189.48C580.207 189.68 579.447 189.8 578.727 189.84C576.367 189.96 574.227 189.68 572.307 189C570.387 188.32 568.727 187.3 567.327 185.94C565.967 184.54 564.927 182.86 564.207 180.9C563.487 178.9 563.167 176.66 563.247 174.18C563.327 171.94 563.767 169.9 564.567 168.06C565.407 166.22 566.487 164.66 567.807 163.38C569.127 162.06 570.647 161.06 572.367 160.38C574.127 159.66 575.967 159.3 577.887 159.3C580.207 159.3 582.247 159.7 584.007 160.5C585.767 161.3 586.967 162.48 587.607 164.04V161.46ZM585.387 179.94C586.067 179.3 586.607 178.56 587.007 177.72C587.447 176.88 587.667 175.94 587.667 174.9C587.707 172.74 587.107 171.06 585.867 169.86C584.627 168.62 582.807 167.92 580.407 167.76C579.367 167.72 578.367 167.84 577.407 168.12C576.447 168.4 575.587 168.86 574.827 169.5C574.107 170.1 573.507 170.86 573.027 171.78C572.547 172.66 572.287 173.68 572.247 174.84C572.167 177.16 572.887 178.96 574.407 180.24C575.927 181.52 577.907 182.1 580.347 181.98C581.307 181.94 582.207 181.74 583.047 181.38C583.927 181.02 584.707 180.54 585.387 179.94ZM608.625 195.48C608.225 195.92 607.845 196.32 607.485 196.68C607.125 197.04 606.705 197.32 606.225 197.52C605.785 197.72 605.285 197.8 604.725 197.76C604.165 197.76 603.465 197.6 602.625 197.28C601.665 196.92 600.985 196.54 600.585 196.14C600.185 195.74 599.945 195.34 599.865 194.94C599.825 194.54 599.905 194.12 600.105 193.68C600.345 193.28 600.605 192.86 600.885 192.42C603.045 189.18 604.725 185.78 605.925 182.22C607.165 178.62 607.785 174.62 607.785 170.22C607.785 165.86 607.105 161.9 605.745 158.34C604.425 154.74 602.685 151.32 600.525 148.08C600.245 147.64 599.985 147.22 599.745 146.82C599.545 146.38 599.465 145.96 599.505 145.56C599.585 145.16 599.825 144.76 600.225 144.36C600.625 143.96 601.305 143.58 602.265 143.22C603.105 142.9 603.805 142.74 604.365 142.74C604.925 142.7 605.425 142.78 605.865 142.98C606.345 143.18 606.765 143.48 607.125 143.88C607.485 144.24 607.865 144.62 608.265 145.02C609.385 146.18 610.465 147.64 611.505 149.4C612.545 151.12 613.445 153.08 614.205 155.28C615.005 157.44 615.625 159.8 616.065 162.36C616.545 164.88 616.785 167.5 616.785 170.22C616.785 172.98 616.565 175.64 616.125 178.2C615.725 180.72 615.145 183.08 614.385 185.28C613.665 187.44 612.805 189.38 611.805 191.1C610.805 192.86 609.745 194.32 608.625 195.48Z" fill="white"/>
</svg>
