<?xml version="1.0" standalone="no"?>
<!DOCTYPE svg PUBLIC "-//W3C//DTD SVG 20010904//EN"
 "http://www.w3.org/TR/2001/REC-SVG-20010904/DTD/svg10.dtd">
<svg version="1.0" xmlns="http://www.w3.org/2000/svg"
 width="530.000000pt" height="471.000000pt" viewBox="0 0 530.000000 471.000000"
 preserveAspectRatio="xMidYMid meet">

<g transform="translate(0.000000,471.000000) scale(0.100000,-0.100000)"
fill="#000000" stroke="none">
<path d="M1822 3243 c-36 -7 -89 -64 -101 -111 -24 -87 47 -176 141 -176 82 0
142 61 142 144 0 94 -85 161 -182 143z"/>
<path d="M3276 3240 c-57 -17 -106 -83 -106 -141 0 -40 34 -101 68 -121 73
-43 167 -19 204 52 59 113 -46 246 -166 210z"/>
<path d="M2480 3086 c-116 -26 -180 -73 -180 -132 0 -73 110 -132 263 -142
159 -9 298 34 340 105 16 29 17 35 3 66 -37 90 -253 142 -426 103z"/>
</g>
</svg>
